<svg width="129" height="34" viewBox="0 0 129 34" fill="none" xmlns="http://www.w3.org/2000/svg">
<g clip-path="url(#clip0)">
<path d="M8.46934 32.1935C8.46934 33.1652 7.67374 33.9527 6.69207 33.9527C5.7104 33.9527 4.91479 33.1652 4.91479 32.1935C4.91479 32.1236 4.918 32.0537 4.92763 31.9839H8.45651C8.46293 32.0537 8.46934 32.1236 8.46934 32.1935Z" fill="#111449"/>
<path d="M21.0611 32.1935C21.0611 33.1652 20.2655 33.9527 19.2839 33.9527C18.3022 33.9527 17.5066 33.1652 17.5066 32.1935C17.5066 32.1236 17.5098 32.0537 17.5194 31.9839H21.0483C21.0547 32.0537 21.0611 32.1236 21.0611 32.1935Z" fill="#111449"/>
<path d="M18.8795 1.91471V3.45164H17.9299V1.91471C17.9299 1.55905 17.6829 1.26373 17.346 1.18434C13.3038 2.29259 9.72362 1.48919 8.75157 1.22562C8.4821 1.33994 8.29603 1.60668 8.29603 1.91471V3.45164H7.34644V1.91471C7.34644 0.981111 8.11317 0.222168 9.05313 0.222168H9.30336C10.9363 0.419049 13.753 0.619105 16.9386 0.222168H17.1728C18.116 0.225343 18.8795 0.981111 18.8795 1.91471Z" fill="#111449"/>
<path d="M22.3475 4.1123H3.64438C1.63612 4.1123 0 5.73181 0 7.72284V27.8015C0 29.7893 1.63612 31.4088 3.64438 31.4088H22.3443C24.3557 31.4088 25.9886 29.7893 25.9886 27.8015V7.72284C25.9918 5.73181 24.3557 4.1123 22.3475 4.1123ZM25.0423 27.8015C25.0423 29.0145 24.221 30.0402 23.0982 30.3641C10.561 29.4178 2.97389 30.3768 2.97389 30.3768H2.93539C1.79332 30.0688 0.949591 29.0304 0.949591 27.8015V7.72284C0.949591 6.25259 2.15904 5.05543 3.64438 5.05543H22.3443C23.8296 5.05543 25.039 6.25259 25.039 7.72284V27.8015H25.0423Z" fill="#111449"/>
<path d="M20.6312 6.84619H4.96296C3.49366 6.84619 2.30347 8.0243 2.30347 9.47868V10.8283C2.30347 12.2826 3.49366 13.4607 4.96296 13.4607H20.6312C22.1005 13.4607 23.2907 12.2826 23.2907 10.8283V9.47868C23.2875 8.0243 22.0973 6.84619 20.6312 6.84619Z" fill="#B8EF7D"/>
<path d="M20.6312 14.4546H4.96296C3.49366 14.4546 2.30347 15.6327 2.30347 17.0871V18.4367C2.30347 19.891 3.49366 21.0691 4.96296 21.0691H20.6312C22.1005 21.0691 23.2907 19.891 23.2907 18.4367V17.0871C23.2875 15.6327 22.0973 14.4546 20.6312 14.4546Z" fill="#92D43B"/>
<path d="M20.6312 22.0601H4.96296C3.49366 22.0601 2.30347 23.2382 2.30347 24.6925V26.0421C2.30347 27.4965 3.49366 28.6746 4.96296 28.6746H20.6312C22.1005 28.6746 23.2907 27.4965 23.2907 26.0421V24.6925C23.2875 23.2413 22.0973 22.0601 20.6312 22.0601Z" fill="#78CE2C"/>
<path d="M49.5906 5.96358L48.9009 3.82012C48.8367 3.63276 48.7661 3.44859 48.6827 3.26123C48.0347 1.64491 46.8509 0.83833 45.1346 0.83833H41.5864V8.57383H47.6112V9.50743H41.5864V17.8018H45.1346C45.5324 17.8018 45.9077 17.7605 46.2638 17.678C47.4572 17.3668 48.3234 16.4141 48.8688 14.82L49.5906 12.6766H50.5017L50.3766 18.6401H34.6794V17.8018H37.1914V0.83833H34.6794V0H50.3734L50.4985 5.96358H49.5906Z" fill="#111449"/>
<path d="M59.4747 17.8652C59.7474 17.9065 59.8821 18.1669 59.8821 18.6432H52.5388V17.8367C52.7056 17.8367 52.8628 17.8271 53.0104 17.8049C53.9087 17.7001 54.361 17.173 54.361 16.2203V6.09051H52.542V5.28393H58.1305L58.2877 7.70684C58.477 7.3353 58.7272 6.9733 59.0416 6.62082C60.1099 5.42048 61.4059 4.82031 62.933 4.82031C63.4784 4.82031 64.0013 4.90288 64.5017 5.068C66.3432 5.70945 67.2639 7.31625 67.2639 9.88205V17.8367H68.3001C68.4252 17.8367 68.5503 17.8462 68.6755 17.8684C68.9481 17.9097 69.0829 18.1701 69.0829 18.6464H61.8326V17.8398C62.1246 17.8398 62.378 17.8081 62.5865 17.7477C63.0453 17.6017 63.2763 17.0968 63.2763 16.2267V9.35174C63.2763 9.06277 63.2538 8.78333 63.2121 8.51341C63.0036 7.12572 62.301 6.43346 61.1076 6.43346C60.7932 6.43346 60.4916 6.5065 60.1965 6.6494C59.1282 7.167 58.5219 8.24349 58.3775 9.88205L58.3454 17.8367H59.1314C59.2565 17.8335 59.372 17.843 59.4747 17.8652Z" fill="#111449"/>
<path d="M82.8904 16.4048C81.8221 18.1036 80.0641 18.9515 77.6163 18.9515C76.2368 18.9515 75.0017 18.6721 73.9142 18.1132C71.6332 16.9319 70.4944 14.8392 70.4944 11.8384C70.4944 9.99661 70.9981 8.45332 72.0022 7.20853C73.3207 5.61443 75.1621 4.81738 77.5265 4.81738C78.8226 4.81738 79.9839 5.03332 81.0105 5.46836C82.8294 6.27493 83.7405 7.56101 83.7405 9.32023C83.7405 9.67271 83.6764 9.99344 83.5513 10.2824C83.0059 11.4415 81.049 11.9718 77.6805 11.867L74.7932 11.7749C74.8125 12.9752 74.9183 14.0104 75.1076 14.8805C75.5888 16.9922 76.6667 18.0497 78.3413 18.0497C78.8643 18.0497 79.3776 17.9576 79.878 17.7702C81.1324 17.3161 82.0531 16.4556 82.6402 15.1917L83.3941 15.4394C83.2689 15.7728 83.0989 16.0936 82.8904 16.4048ZM74.7932 10.873L76.8015 10.9651C77.6388 11.0064 78.2643 10.9556 78.6846 10.8095C79.2717 10.5809 79.5636 9.98073 79.5636 9.00903C79.5412 6.79254 78.861 5.66524 77.5233 5.62396C75.8487 5.68429 74.9376 7.43716 74.7932 10.873Z" fill="#111449"/>
<path d="M93.5924 17.8651C93.8651 17.9064 93.9999 18.1668 93.9999 18.6431H85.1167V17.8365C85.3894 17.8365 85.63 17.8175 85.8385 17.773C86.57 17.6492 86.9357 17.1316 86.9357 16.2202V6.0904H85.1167V5.28382H90.6089L90.8271 8.17352C91.0581 7.59241 91.3917 7.05575 91.8312 6.55719C92.8129 5.54104 93.9549 5.03613 95.251 5.03613C95.5237 5.03613 95.7835 5.06789 96.037 5.12822C97.0604 5.39814 97.5737 6.04912 97.5737 7.08433C97.5737 7.3733 97.5095 7.65274 97.3844 7.92266C97.0283 8.71018 96.4316 9.10394 95.5943 9.10394C95.344 9.10394 95.1131 9.07219 94.9045 9.01185C94.465 8.84672 94.0576 8.43074 93.6791 7.77023C93.4064 7.29391 93.1561 7.05575 92.9252 7.05575C92.8 7.05575 92.6621 7.0875 92.5177 7.14784C91.597 7.62416 91.0645 8.94834 90.9169 11.1236V17.8334H93.2396C93.3743 17.8334 93.4898 17.8429 93.5924 17.8651Z" fill="#111449"/>
<path d="M109.068 5.74743C109.152 5.51879 109.245 5.29333 109.351 5.0647C109.957 3.82308 110.804 3.20068 111.891 3.20068C112.289 3.20068 112.655 3.27372 112.989 3.41662C113.72 3.72782 114.086 4.25495 114.086 5.00119C114.086 5.10598 114.076 5.20759 114.054 5.31239C113.906 5.8935 113.521 6.18247 112.892 6.18247C112.62 6.18247 112.328 6.05863 112.013 5.81094C111.616 5.45846 111.282 5.28381 111.009 5.28381C110.506 5.30604 110.066 5.60453 109.691 6.18565C110.82 7.16052 111.397 8.40214 111.417 9.91368C111.417 11.0314 111.083 12.0476 110.413 12.959C109.242 14.5118 107.503 15.2898 105.203 15.2898L101.844 15.258C101.76 15.258 101.677 15.2676 101.594 15.2898C101.071 15.3533 100.808 15.62 100.808 16.0964C100.808 16.1599 100.817 16.2202 100.84 16.2837C100.946 16.741 101.27 16.9791 101.812 16.9982L108.308 17.122C108.6 17.122 108.882 17.1443 109.155 17.1856C111.455 17.4745 112.607 18.6653 112.607 20.758C112.607 21.2978 112.45 21.8154 112.135 22.3108C111.131 23.9049 108.911 24.7019 105.482 24.7019C104.057 24.7019 102.845 24.5146 101.841 24.1431C100.355 23.5842 99.6109 22.7458 99.6109 21.6281C99.6109 21.0057 99.8836 20.3737 100.426 19.7323C99.6719 19.1099 99.2837 18.3033 99.2645 17.3094C99.2645 16.8966 99.3479 16.4806 99.5147 16.0678C99.9959 14.9691 100.852 14.4324 102.088 14.4515H102.12C101.828 14.2863 101.545 14.099 101.273 13.8926C99.8066 12.7748 99.0752 11.4697 99.0752 9.97719C99.0752 8.91975 99.3896 7.9671 100.018 7.11924C101.148 5.58548 102.928 4.82019 105.353 4.82019C106.829 4.81383 108.064 5.12503 109.068 5.74743ZM108.189 23.6128C110.137 23.2412 111.109 22.568 111.109 21.5931C111.109 21.3867 111.067 21.2089 110.984 21.066C110.775 20.6945 110.063 20.5071 108.85 20.5071L102.511 20.4436C102.049 20.4436 101.61 20.361 101.193 20.1959C100.878 20.631 100.721 21.066 100.721 21.501C100.721 21.7297 100.772 21.9551 100.878 22.1838C101.401 23.3016 102.938 23.8604 105.491 23.8604C106.473 23.8604 107.371 23.7779 108.189 23.6128ZM103.294 13.0479C103.544 14.0005 104.182 14.4769 105.209 14.4769C105.838 14.4769 106.329 14.3022 106.685 13.9497C107.188 13.3908 107.439 12.0667 107.439 9.97401C107.439 8.60855 107.365 7.63367 107.221 7.05256C106.948 6.09991 106.29 5.62358 105.244 5.62358C104.596 5.62358 104.102 5.81094 103.769 6.18247C103.307 6.72231 103.079 8.01473 103.079 10.0661C103.072 11.4951 103.146 12.489 103.294 13.0479Z" fill="#111449"/>
<path d="M118.359 23.489C119.28 23.1588 120.242 21.7584 121.246 19.2942L115.125 6.05876H113.807V5.28076H121.182V6.05876H119.267L123.065 14.7279L126.485 6.05876H124.13V5.28076H128.994C128.994 5.38555 128.984 5.48717 128.962 5.59196C128.92 5.90316 128.67 6.05876 128.208 6.05876C127.874 6.10004 127.528 6.40171 127.172 6.9606L122.462 19.0465C122.064 20.0817 121.647 20.9613 121.208 21.6885C120.056 23.6986 118.603 24.7021 116.845 24.7021C116.072 24.7021 115.391 24.5465 114.804 24.2353C113.967 23.8002 113.55 23.2413 113.55 22.5586C113.55 22.4125 113.572 22.2569 113.614 22.0918C113.823 21.4504 114.304 21.1296 115.058 21.1296C115.414 21.1296 115.728 21.2217 116.001 21.4091C116.232 21.5964 116.492 22.0505 116.787 22.7746C117.018 23.3334 117.32 23.6129 117.698 23.6129C117.907 23.6129 118.128 23.5716 118.359 23.489Z" fill="#111449"/>
<path d="M34.6536 23.8864V22.6797H43.001V23.8864H39.4849V33.9527H38.1664V23.8864H34.6536Z" fill="#92BC1E"/>
<path d="M53.7384 33.759V33.9527H52.3076L49.1509 29.8119H46.1738V33.9527H44.8071V22.6606H49.3466C51.6885 22.6606 53.2347 24.2389 53.2347 26.2839C53.2347 28.0241 52.1119 29.2466 50.5175 29.634L53.7384 33.759ZM49.3433 28.7004C50.7902 28.7004 51.913 27.7351 51.913 26.268C51.913 24.82 50.8223 23.8515 49.3433 23.8515H46.1545V28.7004H49.3433Z" fill="#92BC1E"/>
<path d="M57.1229 31.1644L55.7883 33.9493H54.3735V33.7715L59.6765 22.6255H60.2956L65.5505 33.7715V33.9493H64.1518L62.8172 31.1644H57.1229ZM57.5784 30.0053H62.3617L59.9684 24.7372L57.5784 30.0053Z" fill="#92BC1E"/>
<path d="M72.727 27.43L74.6807 22.6794H76.1276V22.8731L71.3924 34.0033H70.8214L66.0542 22.87V22.6763H67.501L69.4708 27.4268L71.1133 31.647H71.1294L72.727 27.43Z" fill="#92BC1E"/>
<path d="M84.6193 23.8546H79.3644V27.5414H84.4396V28.7163H79.3644V32.7111H84.7989V33.9527H77.9978V22.6797H84.6193V23.8546Z" fill="#92BC1E"/>
<path d="M88.623 32.7426H93.9933V33.9493H87.2563V22.6763H88.623V32.7426Z" fill="#92BC1E"/>
</g>
<defs>
<clipPath id="clip0">
<rect width="129" height="34" fill="white"/>
</clipPath>
</defs>
</svg>
