<svg width="148" height="39" viewBox="0 0 148 39" fill="none" xmlns="http://www.w3.org/2000/svg">
<g clip-path="url(#clip0)">
<path d="M9.71676 36.9274C9.71676 38.042 8.80397 38.9453 7.67772 38.9453C6.55146 38.9453 5.63867 38.042 5.63867 36.9274C5.63867 36.8473 5.64235 36.7671 5.65339 36.687H9.70204C9.7094 36.7671 9.71676 36.8473 9.71676 36.9274Z" fill="white"/>
<path d="M24.163 36.9274C24.163 38.042 23.2503 38.9453 22.124 38.9453C20.9977 38.9453 20.085 38.042 20.085 36.9274C20.085 36.8473 20.0886 36.7671 20.0997 36.687H24.1483C24.1557 36.7671 24.163 36.8473 24.163 36.9274Z" fill="white"/>
<path d="M21.6602 2.19632V3.95928H20.5707V2.19632C20.5707 1.78837 20.2873 1.44962 19.9009 1.35855C15.2633 2.62978 11.1558 1.70823 10.0406 1.40591C9.73139 1.53703 9.51792 1.843 9.51792 2.19632V3.95928H8.42847V2.19632C8.42847 1.12543 9.30813 0.254883 10.3865 0.254883H10.6736C12.547 0.480716 15.7786 0.710192 19.4334 0.254883H19.7021C20.7842 0.258525 21.6602 1.12543 21.6602 2.19632Z" fill="white"/>
<path d="M25.639 4.7168H4.18114C1.8771 4.7168 0 6.57446 0 8.85829V31.8897C0 34.1699 1.8771 36.0275 4.18114 36.0275H25.6353C27.943 36.0275 29.8164 34.1699 29.8164 31.8897V8.85829C29.8201 6.57446 27.943 4.7168 25.639 4.7168ZM28.7306 31.8897C28.7306 33.2811 27.7884 34.4576 26.5002 34.8292C12.1165 33.7437 3.4119 34.8437 3.4119 34.8437H3.36774C2.05745 34.4904 1.08945 33.2993 1.08945 31.8897V8.85829C1.08945 7.17183 2.47703 5.79861 4.18114 5.79861H25.6353C27.3394 5.79861 28.727 7.17183 28.727 8.85829V31.8897H28.7306Z" fill="white"/>
<path d="M23.6699 7.85303H5.69391C4.0082 7.85303 2.6427 9.20439 2.6427 10.8726V12.4207C2.6427 14.0889 4.0082 15.4403 5.69391 15.4403H23.6699C25.3556 15.4403 26.7211 14.0889 26.7211 12.4207V10.8726C26.7174 9.20439 25.3519 7.85303 23.6699 7.85303Z" fill="white"/>
<path d="M23.6699 16.5806H5.69391C4.0082 16.5806 2.6427 17.9319 2.6427 19.6002V21.1482C2.6427 22.8165 4.0082 24.1678 5.69391 24.1678H23.6699C25.3556 24.1678 26.7211 22.8165 26.7211 21.1482V19.6002C26.7174 17.9319 25.3519 16.5806 23.6699 16.5806Z" fill="white"/>
<path d="M23.6699 25.3037H5.69391C4.0082 25.3037 2.6427 26.6551 2.6427 28.3233V29.8714C2.6427 31.5396 4.0082 32.891 5.69391 32.891H23.6699C25.3556 32.891 26.7211 31.5396 26.7211 29.8714V28.3233C26.7174 26.6587 25.3519 25.3037 23.6699 25.3037Z" fill="white"/>
<path d="M56.8945 6.84057L56.1031 4.3819C56.0295 4.16699 55.9486 3.95573 55.8529 3.74082C55.1094 1.8868 53.7513 0.961614 51.7821 0.961614H47.7114V9.83469H54.6235V10.9056H47.7114V20.4197H51.7821C52.2385 20.4197 52.6692 20.3724 53.0777 20.2777C54.4469 19.9207 55.4406 18.828 56.0663 16.9994L56.8945 14.5408H57.9398L57.7962 21.3813H39.7871V20.4197H42.669V0.961614H39.7871V0H57.7925L57.9361 6.84057H56.8945Z" fill="white"/>
<path d="M68.2344 20.4921C68.5472 20.5395 68.7018 20.8381 68.7018 21.3845H60.277V20.4593C60.4684 20.4593 60.6487 20.4484 60.818 20.4229C61.8486 20.3027 62.3675 19.698 62.3675 18.6053V6.9858H60.2807V6.06061H66.6922L66.8726 8.83982C67.0897 8.41365 67.3768 7.99841 67.7375 7.59409C68.9632 6.21724 70.4501 5.52881 72.2021 5.52881C72.8278 5.52881 73.4277 5.62351 74.0019 5.81292C76.1145 6.5487 77.1709 8.3918 77.1709 11.3349V20.4593H78.3597C78.5032 20.4593 78.6468 20.4702 78.7903 20.4957C79.1032 20.5431 79.2577 20.8418 79.2577 21.3882H70.9396V20.463C71.2746 20.463 71.5653 20.4265 71.8046 20.3573C72.3309 20.1898 72.5959 19.6106 72.5959 18.6126V10.7266C72.5959 10.3952 72.5701 10.0746 72.5223 9.76501C72.283 8.17325 71.477 7.37919 70.1078 7.37919C69.7471 7.37919 69.4011 7.46296 69.0625 7.62688C67.8369 8.2206 67.1413 9.4554 66.9756 11.3349L66.9388 20.4593H67.8406C67.9841 20.4557 68.1166 20.4666 68.2344 20.4921Z" fill="white"/>
<path d="M95.0989 18.8173C93.8732 20.766 91.8563 21.7385 89.048 21.7385C87.4653 21.7385 86.0483 21.418 84.8006 20.7769C82.1837 19.4219 80.8771 17.0215 80.8771 13.5794C80.8771 11.4668 81.4549 9.69651 82.6069 8.26866C84.1197 6.44014 86.2323 5.52588 88.9449 5.52588C90.4319 5.52588 91.7642 5.77357 92.942 6.27259C95.0289 7.19778 96.0742 8.67298 96.0742 10.6909C96.0742 11.0952 96.0006 11.4631 95.857 11.7946C95.2314 13.1241 92.9862 13.7324 89.1216 13.6122L85.8091 13.5065C85.8311 14.8834 85.9526 16.0708 86.1698 17.0689C86.7218 19.4911 87.9585 20.7041 89.8798 20.7041C90.4797 20.7041 91.0686 20.5984 91.6428 20.3835C93.0819 19.8627 94.1382 18.8756 94.8118 17.4258L95.6767 17.71C95.5332 18.0924 95.3381 18.4603 95.0989 18.8173ZM85.8091 12.4721L88.1131 12.5777C89.0737 12.6251 89.7914 12.5668 90.2736 12.3992C90.9472 12.137 91.2821 11.4485 91.2821 10.3339C91.2563 7.7915 90.476 6.49842 88.9412 6.45107C87.02 6.52027 85.9747 8.53092 85.8091 12.4721Z" fill="white"/>
<path d="M107.377 20.4925C107.69 20.5398 107.845 20.8385 107.845 21.3849H97.6532V20.4597C97.966 20.4597 98.2421 20.4378 98.4813 20.3868C99.3205 20.2448 99.7401 19.651 99.7401 18.6057V6.98616H97.6532V6.06097H103.954L104.205 9.37562C104.47 8.70905 104.852 8.09347 105.357 7.5216C106.483 6.35601 107.793 5.77686 109.28 5.77686C109.593 5.77686 109.891 5.81328 110.182 5.88249C111.356 6.1921 111.945 6.93881 111.945 8.12625C111.945 8.45772 111.871 8.77826 111.728 9.08787C111.319 9.9912 110.635 10.4429 109.674 10.4429C109.387 10.4429 109.122 10.4064 108.883 10.3372C108.378 10.1478 107.911 9.67066 107.477 8.91303C107.164 8.36666 106.877 8.09347 106.612 8.09347C106.468 8.09347 106.31 8.1299 106.144 8.1991C105.088 8.74547 104.477 10.2644 104.308 12.7595V20.456H106.972C107.127 20.456 107.26 20.467 107.377 20.4925Z" fill="white"/>
<path d="M125.133 6.59265C125.228 6.3304 125.335 6.07178 125.456 5.80952C126.152 4.38531 127.124 3.67139 128.371 3.67139C128.828 3.67139 129.247 3.75516 129.63 3.91908C130.469 4.27604 130.889 4.88069 130.889 5.73667C130.889 5.85687 130.878 5.97343 130.852 6.09363C130.683 6.76021 130.241 7.09167 129.52 7.09167C129.207 7.09167 128.872 6.94962 128.511 6.6655C128.055 6.26119 127.672 6.06085 127.359 6.06085C126.781 6.08635 126.277 6.42874 125.847 7.09531C127.142 8.21356 127.805 9.63776 127.827 11.3716C127.827 12.6537 127.444 13.8193 126.675 14.8647C125.331 16.6459 123.336 17.5383 120.697 17.5383L116.844 17.5019C116.748 17.5019 116.652 17.5128 116.557 17.5383C115.957 17.6111 115.655 17.9171 115.655 18.4635C115.655 18.5363 115.666 18.6055 115.692 18.6784C115.813 19.2029 116.185 19.4761 116.807 19.4979L124.26 19.64C124.595 19.64 124.919 19.6655 125.232 19.7129C127.871 20.0443 129.192 21.4102 129.192 23.8106C129.192 24.4299 129.012 25.0236 128.651 25.5918C127.499 27.4203 124.952 28.3346 121.018 28.3346C119.383 28.3346 117.992 28.1197 116.84 27.6935C115.136 27.0524 114.282 26.0908 114.282 24.8087C114.282 24.0948 114.595 23.3699 115.217 22.6341C114.352 21.9202 113.907 20.995 113.885 19.8549C113.885 19.3814 113.98 18.9042 114.172 18.4307C114.724 17.1704 115.707 16.5548 117.124 16.5767H117.16C116.825 16.3873 116.502 16.1724 116.189 15.9356C114.507 14.6535 113.667 13.1564 113.667 11.4444C113.667 10.2315 114.028 9.13874 114.75 8.1662C116.045 6.40689 118.088 5.52905 120.87 5.52905C122.563 5.52177 123.98 5.87873 125.133 6.59265ZM124.124 27.0852C126.358 26.6591 127.473 25.8869 127.473 24.7686C127.473 24.5319 127.426 24.3279 127.33 24.164C127.091 23.7378 126.273 23.5229 124.882 23.5229L117.609 23.45C117.079 23.45 116.575 23.3553 116.097 23.1659C115.736 23.6649 115.556 24.164 115.556 24.663C115.556 24.9252 115.615 25.1839 115.736 25.4461C116.336 26.7283 118.099 27.3693 121.029 27.3693C122.155 27.3693 123.185 27.2746 124.124 27.0852ZM118.507 14.9667C118.795 16.0595 119.527 16.6058 120.705 16.6058C121.426 16.6058 121.989 16.4055 122.398 16.0012C122.976 15.3601 123.263 13.8412 123.263 11.4408C123.263 9.87453 123.178 8.75628 123.012 8.08971C122.7 6.99697 121.945 6.4506 120.745 6.4506C120.002 6.4506 119.435 6.6655 119.052 7.09167C118.522 7.71089 118.261 9.19338 118.261 11.5464C118.253 13.1855 118.338 14.3256 118.507 14.9667Z" fill="white"/>
<path d="M135.791 26.9436C136.848 26.5648 137.952 24.9584 139.104 22.1319L132.081 6.95002H130.569V6.05762H139.03V6.95002H136.833L141.191 16.894L145.114 6.95002H142.413V6.05762H147.993C147.993 6.17782 147.982 6.29438 147.956 6.41458C147.908 6.77154 147.621 6.95002 147.091 6.95002C146.708 6.99738 146.311 7.34341 145.902 7.98449L140.499 21.8478C140.043 23.0352 139.564 24.0442 139.06 24.8783C137.739 27.184 136.071 28.335 134.054 28.335C133.167 28.335 132.387 28.1565 131.713 27.7996C130.753 27.3005 130.274 26.6595 130.274 25.8763C130.274 25.7088 130.3 25.5303 130.348 25.3409C130.587 24.6051 131.139 24.2372 132.004 24.2372C132.413 24.2372 132.773 24.3429 133.086 24.5578C133.351 24.7727 133.649 25.2935 133.988 26.124C134.253 26.7651 134.599 27.0856 135.033 27.0856C135.273 27.0856 135.526 27.0383 135.791 26.9436Z" fill="white"/>
<path d="M39.7577 27.3983V26.0142H49.3346V27.3983H45.3006V38.945H43.7879V27.3983H39.7577Z" fill="white"/>
<path d="M61.6535 38.7226V38.9448H60.0119L56.3903 34.195H52.9747V38.9448H51.4067V25.9922H56.6148C59.3016 25.9922 61.0756 27.8025 61.0756 30.1483C61.0756 32.1443 59.7874 33.5467 57.9582 33.9911L61.6535 38.7226ZM56.6111 32.9202C58.271 32.9202 59.5592 31.8129 59.5592 30.13C59.5592 28.4691 58.3078 27.3581 56.6111 27.3581H52.9526V32.9202H56.6111Z" fill="white"/>
<path d="M65.5366 35.7473L64.0055 38.9417H62.3823V38.7377L68.4663 25.9526H69.1767L75.2055 38.7377V38.9417H73.6008L72.0696 35.7473H65.5366ZM66.0592 34.4178H71.547L68.8013 28.3749L66.0592 34.4178Z" fill="white"/>
<path d="M83.4388 31.4635L85.6803 26.0144H87.3402V26.2366L81.9077 39.0035H81.2526L75.7832 26.2329V26.0107H77.4432L79.703 31.4599L81.5875 36.3007H81.6059L83.4388 31.4635Z" fill="white"/>
<path d="M97.0828 27.3619H91.054V31.5908H96.8767V32.9385H91.054V37.5207H97.2889V38.945H89.4861V26.0142H97.0828V27.3619Z" fill="white"/>
<path d="M101.676 37.5574H107.838V38.9415H100.108V26.0107H101.676V37.5574Z" fill="white"/>
</g>
<defs>
<clipPath id="clip0">
<rect width="148" height="39" fill="white"/>
</clipPath>
</defs>
</svg>
