<svg width="96" height="54" viewBox="0 0 96 54" xmlns="http://www.w3.org/2000/svg">
<path d="M81.9355 1.67188H13.5457C6.08198 1.67188 0 7.75386 0 15.2176C0 22.6813 6.08198 28.7633 13.5457 28.7633H81.9355C89.4111 28.7633 95.4812 22.6813 95.4812 15.2176C95.4812 7.75386 89.4111 1.67188 81.9355 1.67188Z" fill="#fff" fill-opacity="0.25"/>
<path d="M14.1246 36.4156V48.2962H10.4518V47.1742C9.6487 48.0718 8.44411 48.6268 6.80257 48.6268C3.59034 48.6268 0.944969 45.8988 0.944969 42.3559C0.944969 38.813 3.59034 36.085 6.80257 36.085C8.44411 36.085 9.6487 36.6282 10.4518 37.5376V36.4156H14.1246ZM10.4518 42.3677C10.4518 40.5844 9.22355 39.4625 7.53477 39.4625C5.84598 39.4625 4.61778 40.5844 4.61778 42.3677C4.61778 44.151 5.84598 45.2729 7.53477 45.2729C9.22355 45.2611 10.4518 44.151 10.4518 42.3677Z" fill="#fff"/>
<path d="M29.9964 42.3677C29.9964 45.9106 27.3511 48.6386 24.1388 48.6386C22.4973 48.6386 21.2927 48.0954 20.4897 47.1861V53.0555H16.8168V36.4156H20.4897V37.5376C21.2927 36.6282 22.4973 36.085 24.1388 36.085C27.3511 36.085 29.9964 38.8248 29.9964 42.3677ZM26.3236 42.3677C26.3236 40.5844 25.0954 39.4625 23.4066 39.4625C21.7179 39.4625 20.4897 40.5844 20.4897 42.3677C20.4897 44.151 21.7179 45.2729 23.4066 45.2729C25.0954 45.2611 26.3236 44.151 26.3236 42.3677Z" fill="#fff"/>
<path d="M45.2674 42.3677C45.2674 45.9106 42.622 48.6386 39.4098 48.6386C37.7683 48.6386 36.5637 48.0954 35.7606 47.1861V53.0555H32.0878V36.4156H35.7606V37.5376C36.5637 36.6282 37.7683 36.085 39.4098 36.085C42.622 36.085 45.2674 38.8248 45.2674 42.3677ZM41.5946 42.3677C41.5946 40.5844 40.3664 39.4625 38.6776 39.4625C36.9888 39.4625 35.7606 40.5844 35.7606 42.3677C35.7606 44.151 36.9888 45.2729 38.6776 45.2729C40.3664 45.2611 41.5946 44.151 41.5946 42.3677Z" fill="#fff"/>
<path d="M51.7606 39.841V44.0452C51.7606 45.0727 52.6699 45.1671 54.2879 45.0727V48.3085C49.4813 48.7809 48.0878 47.3874 48.0878 44.057V39.8528H46.1274V36.428H48.0878V34.1723L51.7606 33.0977V36.428H54.2879V39.8528H51.7606V39.841Z" fill="#fff"/>
<path d="M62.3441 45.45C63.3479 45.45 64.21 45.0721 64.6942 44.5407L67.6348 46.1822C66.4302 47.8002 64.6233 48.6268 62.2968 48.6268C58.1044 48.6268 55.5063 45.8988 55.5063 42.3559C55.5063 38.813 58.1516 36.085 62.0252 36.085C65.6035 36.085 68.2489 38.7658 68.2489 42.3559C68.2489 42.8519 68.2017 43.3361 68.1072 43.7849H59.4035C59.864 45.0249 60.9978 45.45 62.3441 45.45ZM64.5997 41.1277C64.21 39.746 63.0999 39.25 62.0016 39.25C60.6081 39.25 59.6751 39.9113 59.3326 41.1277H64.5997Z" fill="#fff"/>
<path d="M69.5936 42.3676C69.5936 38.8247 72.357 36.0967 76.0889 36.0967C78.4626 36.0967 80.5766 37.3131 81.6276 39.1436L78.4154 40.9505C78.0021 40.1238 77.1163 39.616 76.0416 39.616C74.4473 39.616 73.2782 40.7379 73.2782 42.3794C73.2782 44.021 74.4592 45.1311 76.0416 45.1311C77.1163 45.1311 78.0257 44.6351 78.4154 43.7966L81.6276 45.5799C80.5766 47.434 78.4863 48.6504 76.0889 48.6504C72.3688 48.6386 69.5936 45.9105 69.5936 42.3676Z" fill="#fff"/>
<path d="M94.8556 41.0099V48.3083H91.1828V41.5295C91.1828 40.0533 90.2262 39.3684 89.0452 39.3684C87.6989 39.3684 86.766 40.1242 86.766 41.813V48.3083H83.0931V31.6685H86.766V37.5379C87.4273 36.664 88.6555 36.0853 90.2734 36.0853C92.7535 36.0853 94.8556 37.7977 94.8556 41.0099Z" fill="#fff"/>
<path d="M88.0877 22.8223C92.2892 18.6208 92.2892 11.8089 88.0877 7.60743C83.8863 3.40597 77.0744 3.40597 72.8729 7.60743C68.6714 11.8089 68.6714 18.6208 72.8729 22.8223C77.0744 27.0237 83.8863 27.0237 88.0877 22.8223Z" fill="#fff"/>
<path opacity="0.35" d="M47.7458 25.9762C53.6876 25.9762 58.5044 21.1594 58.5044 15.2176C58.5044 9.27578 53.6876 4.45898 47.7458 4.45898C41.804 4.45898 36.9872 9.27578 36.9872 15.2176C36.9872 21.1594 41.804 25.9762 47.7458 25.9762Z" fill="#fff"/>
<path opacity="0.5" d="M64.1148 25.9762C70.0567 25.9762 74.8734 21.1594 74.8734 15.2176C74.8734 9.27578 70.0567 4.45898 64.1148 4.45898C58.173 4.45898 53.3562 9.27578 53.3562 15.2176C53.3562 21.1594 58.173 25.9762 64.1148 25.9762Z" fill="#fff"/>
<path opacity="0.2" d="M31.3784 25.9762C37.3202 25.9762 42.137 21.1594 42.137 15.2176C42.137 9.27578 37.3202 4.45898 31.3784 4.45898C25.4366 4.45898 20.6198 9.27578 20.6198 15.2176C20.6198 21.1594 25.4366 25.9762 31.3784 25.9762Z" fill="#fff"/>
<path opacity="0.1" d="M15.011 25.9762C20.9528 25.9762 25.7696 21.1594 25.7696 15.2176C25.7696 9.27578 20.9528 4.45898 15.011 4.45898C9.06916 4.45898 4.25237 9.27578 4.25237 15.2176C4.25237 21.1594 9.06916 25.9762 15.011 25.9762Z" fill="#fff"/>
</svg>
