<svg width="32" height="32" viewBox="0 0 32 32" xmlns="http://www.w3.org/2000/svg">
<path d="M28 11.9998V8.02784C28.004 7.83317 27.9906 6.0745 26.2666 4.38117C24.5693 2.7145 22.8573 2.6665 22.6666 2.6665H20H10.6666H9.32796C9.00929 2.6665 7.33729 2.7505 5.71729 4.4025C4.04796 6.10384 3.99996 7.81184 3.99996 7.99984V11.9998H2.66663V15.9998H3.99996V23.9998C3.99996 25.4718 3.86129 26.6665 5.33329 26.6665V27.9998C5.33329 28.7372 5.92929 29.3332 6.66663 29.3332H7.99996C8.73729 29.3332 9.33329 28.7372 9.33329 27.9998V26.6665H22.6666V27.9998C22.6666 28.7372 23.2626 29.3332 24 29.3332H25.3333C26.0706 29.3332 26.6666 28.7372 26.6666 27.9998V25.3332L25.3333 26.6665C26.8053 26.6665 28 25.4718 28 23.9998V15.9998H29.3333V11.9998H28ZM12 5.33317H20V7.99984H12V5.33317ZM9.33329 22.6545H6.66663V19.9998H9.33329V22.6545ZM14.6666 17.3332H6.66663V10.6665H14.6666V17.3332ZM25.3333 22.6545H22.6666V19.9998H25.3333V22.6545ZM25.3333 17.3332H17.3333V10.6665H25.3333V17.3332Z"/>
</svg>
