<svg width="32" height="32" viewBox="0 0 32 32" xmlns="http://www.w3.org/2000/svg">
<path d="M16.248 19.4023C15.4253 19.4023 14.9453 20.185 14.9453 21.233C14.9453 22.2877 15.44 23.033 16.256 23.033C17.0786 23.033 17.5506 22.249 17.5506 21.201C17.5506 20.233 17.0866 19.4023 16.248 19.4023Z" />
<path d="M18.6667 2.6665H8.00004C6.52804 2.6665 5.33337 3.86117 5.33337 5.33317V26.6665C5.33337 28.1385 6.52804 29.3332 8.00004 29.3332H24C25.472 29.3332 26.6667 28.1385 26.6667 26.6665V10.6665L18.6667 2.6665ZM12.2067 23.2718C11.6387 23.7438 10.776 23.9665 9.72137 23.9665C9.08804 23.9665 8.64137 23.9265 8.33737 23.8865V18.5918C8.78537 18.5198 9.36804 18.4812 9.98404 18.4812C11.008 18.4812 11.672 18.6652 12.1907 19.0572C12.7507 19.4732 13.1027 20.1372 13.1027 21.0865C13.1027 22.1198 12.7267 22.8318 12.2067 23.2718ZM16.1934 23.9998C14.5934 23.9998 13.6587 22.7918 13.6587 21.2558C13.6587 19.6412 14.6894 18.4345 16.2814 18.4345C17.936 18.4345 18.84 19.6732 18.84 21.1612C18.8387 22.9278 17.7667 23.9998 16.1934 23.9998ZM22.4 22.9838C22.7667 22.9838 23.1747 22.9025 23.416 22.8078L23.6 23.7585C23.376 23.8705 22.872 23.9905 22.2174 23.9905C20.3547 23.9905 19.3947 22.8318 19.3947 21.2958C19.3947 19.4572 20.7054 18.4345 22.3374 18.4345C22.9694 18.4345 23.448 18.5625 23.664 18.6745L23.416 19.6425C23.1667 19.5385 22.824 19.4425 22.392 19.4425C21.424 19.4425 20.672 20.0265 20.672 21.2265C20.672 22.3052 21.312 22.9838 22.4 22.9838ZM18.6667 11.9998C17.9294 11.9998 17.3334 11.9998 17.3334 11.9998V5.33317L24 11.9998H18.6667Z"/>
<path d="M10.1119 19.4175C9.84128 19.4175 9.66528 19.4415 9.56128 19.4655V22.9921C9.66528 23.0161 9.83328 23.0161 9.98395 23.0161C11.0879 23.0241 11.8066 22.4175 11.8066 21.1295C11.8146 20.0095 11.1599 19.4175 10.1119 19.4175Z"/>
<rect x="8" y="18" width="17" height="9"/>
</svg>
