<svg width="38" height="38" viewBox="0 0 38 38" xmlns="http://www.w3.org/2000/svg">
<path d="M33.1661 13.1499C33.1487 11.9513 32.927 10.7622 32.5027 9.64122C31.7601 7.72697 30.248 6.2133 28.3337 5.4723C27.227 5.05588 26.0569 4.83263 24.8726 4.8073C23.3494 4.73921 22.8665 4.72021 19 4.72021C15.1335 4.72021 14.6379 4.72021 13.1258 4.8073C11.9431 4.83263 10.773 5.05588 9.66624 5.4723C7.75199 6.2133 6.23832 7.72697 5.49732 9.64122C5.08091 10.748 4.85607 11.918 4.83391 13.1008C4.76582 14.6255 4.74524 15.1085 4.74524 18.975C4.74524 22.8415 4.74524 23.3355 4.83391 24.8491C4.85766 26.0335 5.08091 27.202 5.49732 28.3119C6.23991 30.2246 7.75199 31.7382 9.66782 32.4792C10.7698 32.9099 11.9399 33.1537 13.1274 33.1917C14.6522 33.2598 15.1351 33.2804 19.0016 33.2804C22.8681 33.2804 23.3637 33.2804 24.8757 33.1917C26.0585 33.168 27.2286 32.9447 28.3369 32.5283C30.2512 31.7857 31.7632 30.272 32.5058 28.3594C32.9222 27.251 33.1455 26.0825 33.1692 24.8966C33.2373 23.3735 33.2579 22.8905 33.2579 19.0225C33.2547 15.156 33.2547 14.6651 33.1661 13.1499ZM18.9905 26.2868C14.9467 26.2868 11.6707 23.0109 11.6707 18.967C11.6707 14.9232 14.9467 11.6473 18.9905 11.6473C23.0312 11.6473 26.3102 14.9232 26.3102 18.967C26.3102 23.0109 23.0312 26.2868 18.9905 26.2868ZM26.6016 13.0834C25.6563 13.0834 24.8947 12.3202 24.8947 11.3765C24.8947 10.4329 25.6563 9.66971 26.6016 9.66971C27.5437 9.66971 28.3068 10.4329 28.3068 11.3765C28.3068 12.3202 27.5437 13.0834 26.6016 13.0834Z"/>
<path d="M18.9905 23.7214C21.6164 23.7214 23.7452 21.5926 23.7452 18.9667C23.7452 16.3407 21.6164 14.2119 18.9905 14.2119C16.3645 14.2119 14.2357 16.3407 14.2357 18.9667C14.2357 21.5926 16.3645 23.7214 18.9905 23.7214Z"/>
</svg>
