<svg width="32" height="32" viewBox="0 0 32 32" xmlns="http://www.w3.org/2000/svg">
<path d="M29.1426 11.3133L25.1426 4.64659C24.9026 4.24526 24.4693 3.99993 24 3.99993H17.8853L16.9426 3.05726C16.4213 2.53593 15.5786 2.53593 15.0573 3.05726L14.1146 3.99993H7.99996C7.53063 3.99993 7.09729 4.24526 6.85729 4.64659L2.85729 11.3133C2.73063 11.5253 2.66929 11.7626 2.66929 11.9999H2.66663V25.3333C2.66663 26.0693 3.26263 26.6666 3.99996 26.6666H28C28.7373 26.6666 29.3333 26.0693 29.3333 25.3333V11.9999H29.3306C29.3306 11.7626 29.2693 11.5253 29.1426 11.3133ZM26.6666 23.9999H18.6666V18.6666H13.3333V23.9999H5.33329V13.3333H6.66663H7.99996H8.55196L8.94263 12.9426L11.6093 10.2759L16 5.88526L21.724 11.6093L23.0573 12.9426L23.448 13.3333H24H26.6666V23.9999Z"/>
<path d="M15.86 16.0001C17.4101 16.0001 18.6667 14.7435 18.6667 13.1934C18.6667 11.6433 17.4101 10.3867 15.86 10.3867C14.3099 10.3867 13.0533 11.6433 13.0533 13.1934C13.0533 14.7435 14.3099 16.0001 15.86 16.0001Z"/>
<path d="M8 16H10.6667V20H8V16ZM21.3333 16H24V20H21.3333V16Z"/>
</svg>
