<svg width="32" height="32" viewBox="0 0 32 32" xmlns="http://www.w3.org/2000/svg">
<path d="M28 5.33325H3.99996C3.26263 5.33325 2.66663 5.92925 2.66663 6.66659V25.3333C2.66663 26.0706 3.26263 26.6666 3.99996 26.6666H28C28.7373 26.6666 29.3333 26.0706 29.3333 25.3333V6.66659C29.3333 5.92925 28.7373 5.33325 28 5.33325ZM26.6666 19.9999C24.4573 19.9999 22.6666 21.7906 22.6666 23.9999H9.33329C9.33329 21.7906 7.54263 19.9999 5.33329 19.9999V11.9999C7.54263 11.9999 9.33329 10.2093 9.33329 7.99992H22.6666C22.6666 10.2093 24.4573 11.9999 26.6666 11.9999V19.9999Z"/>
<path d="M16 10.6667C13.0586 10.6667 10.6666 13.0587 10.6666 16.0001C10.6666 18.9414 13.0586 21.3334 16 21.3334C18.9413 21.3334 21.3333 18.9414 21.3333 16.0001C21.3333 13.0587 18.9413 10.6667 16 10.6667ZM16 18.6667C14.5293 18.6667 13.3333 17.4707 13.3333 16.0001C13.3333 14.5294 14.5293 13.3334 16 13.3334C17.4706 13.3334 18.6666 14.5294 18.6666 16.0001C18.6666 17.4707 17.4706 18.6667 16 18.6667Z"/>
</svg>
