<svg width="32" height="32" viewBox="0 0 32 32" xmlns="http://www.w3.org/2000/svg">
<path d="M17.3199 2.6665V5.33317C22.7359 5.33317 26.6666 9.25717 26.6666 14.6652H29.3333C29.3333 7.82517 24.1693 2.6665 17.3199 2.6665Z"/>
<path d="M21.3333 14.6666H23.9999C23.9999 10.3666 21.6333 7.99996 17.3333 7.99996V10.6666C20.1373 10.6666 21.3333 11.8626 21.3333 14.6666ZM13.8853 11.6093L6.66661 4.39062L5.73194 5.32529L4.39861 6.65863C4.16661 6.89062 4.02794 7.19729 4.01061 7.52396C3.99061 7.85729 3.60795 15.7533 9.73195 21.8786C15.0733 27.22 21.7639 27.6106 23.6066 27.6106C23.8759 27.6106 24.0413 27.6026 24.0839 27.6C24.4106 27.5813 24.7186 27.444 24.9493 27.212L26.2826 25.8786L27.2119 24.9493L19.9933 17.7306L19.0639 18.66L16.8506 20.8733C16.0813 20.728 14.5386 20.2453 12.9493 18.66C11.3586 17.0693 10.8786 15.5213 10.7346 14.7586L12.9493 12.5453L13.8853 11.6093Z"/>
</svg>
