<svg width="40" height="40" viewBox="0 0 40 40" xmlns="http://www.w3.org/2000/svg">
<path d="M20 3.3335C9.17498 3.3335 3.33331 11.0618 3.33331 18.3335C3.33331 21.8818 5.01498 24.9652 8.33331 27.5135V35.0002H13.3333V30.0002H16.6666V35.0002H23.3333V30.0002H26.6666V35.0002H31.6666V27.5118C34.985 24.9652 36.6666 21.8802 36.6666 18.3335C36.6666 11.0618 30.825 3.3335 20 3.3335ZM13.3333 21.6668C11.465 21.6668 9.99998 19.8368 9.99998 17.5002C9.99998 15.1635 11.465 13.3335 13.3333 13.3335C15.2016 13.3335 16.6666 15.1635 16.6666 17.5002C16.6666 19.8368 15.2016 21.6668 13.3333 21.6668ZM26.6666 21.6668C24.7983 21.6668 23.3333 19.8368 23.3333 17.5002C23.3333 15.1635 24.7983 13.3335 26.6666 13.3335C28.535 13.3335 30 15.1635 30 17.5002C30 19.8368 28.535 21.6668 26.6666 21.6668Z"/>
</svg>
