<svg width="29" height="29" viewBox="0 0 29 29" xmlns="http://www.w3.org/2000/svg">
<path d="M14.1667 0C6.35517 0 0 6.35517 0 14.1667C0 21.9782 6.35517 28.3333 14.1667 28.3333C21.9782 28.3333 28.3333 21.9782 28.3333 14.1667C28.3333 6.35517 21.9782 0 14.1667 0ZM9.20833 8.5C10.3813 8.5 11.3333 9.76933 11.3333 11.3333C11.3333 12.8973 10.3813 14.1667 9.20833 14.1667C8.03533 14.1667 7.08333 12.8973 7.08333 11.3333C7.08333 9.76933 8.03533 8.5 9.20833 8.5ZM14.1667 22.6667C11.4679 22.6667 8.99017 21.4285 7.36667 19.2681L9.63192 17.5667C10.7143 19.0074 12.3675 19.8333 14.1667 19.8333C15.9658 19.8333 17.6177 19.0074 18.7 17.5653L20.9667 19.2667C19.3417 21.4285 16.864 22.6667 14.1667 22.6667ZM19.125 14.1667C17.952 14.1667 17 12.8973 17 11.3333C17 9.76933 17.952 8.5 19.125 8.5C20.298 8.5 21.25 9.76933 21.25 11.3333C21.25 12.8973 20.298 14.1667 19.125 14.1667Z"/>
</svg>
