<svg width="34" height="34" viewBox="0 0 34 34" xmlns="http://www.w3.org/2000/svg">
<path d="M17 22.8283C11.3361 14.3977 4.85348 12.8507 4.56165 12.7842L2.83331 12.396V14.1668C2.83331 24.4943 8.39373 31.1668 17 31.1668C25.4731 31.1668 31.1666 24.3357 31.1666 14.1668V12.396L29.4383 12.7842C29.1465 12.8507 22.6638 14.3977 17 22.8283Z"/>
<path d="M15.9715 5.33658C13.4229 8.02542 11.9482 10.6845 11.0939 12.8378C12.9767 13.9485 15.0337 15.5904 16.9858 18.0583C18.9182 15.5649 20.9894 13.9145 22.8933 12.8038C22.0363 10.6576 20.5615 8.01125 18.0271 5.33658L17 4.25L15.9715 5.33658Z"/>
</svg>
