<svg width="32" height="32" viewBox="0 0 32 32" xmlns="http://www.w3.org/2000/svg">
<path d="M20 22.6667C20 20.5747 19.0973 18.7014 17.5533 17.4587L17.3333 17.0187V12.0001V6.66675C17.3333 4.46141 15.5386 2.66675 13.3333 2.66675C11.128 2.66675 9.33329 4.46141 9.33329 6.66675V12.0001V17.0187L9.11329 17.4587C7.56929 18.7014 6.66663 20.5747 6.66663 22.6667C6.66663 22.7241 6.68263 22.7761 6.68396 22.8321C6.68663 22.8561 6.68663 22.8774 6.69063 22.9001C6.81596 26.4667 9.73729 29.3334 13.3333 29.3334C16.9293 29.3334 19.8506 26.4667 19.976 22.9001C19.98 22.8774 19.98 22.8561 19.9826 22.8321C19.984 22.7761 20 22.7241 20 22.6667ZM13.3333 5.33341C14.0693 5.33341 14.6666 5.93208 14.6666 6.66675V10.6667H12V6.66675C12 5.93208 12.5973 5.33341 13.3333 5.33341ZM20 5.33341H29.3333V8.00008H20V5.33341ZM20 9.33342H26.6666V12.0001H20V9.33342ZM20 13.3334H24V16.0001H20V13.3334Z"/>
</svg>
