<svg width="38" height="38" viewBox="0 0 38 38" xmlns="http://www.w3.org/2000/svg">
<path d="M34.1668 10.8538C34.3884 10.1176 34.1668 9.57764 33.1186 9.57764H29.6464C28.7629 9.57764 28.3591 10.0447 28.1374 10.5577C28.1374 10.5577 26.372 14.8628 23.8704 17.6542C23.0629 18.4665 22.6939 18.723 22.2538 18.723C22.0337 18.723 21.7139 18.4665 21.7139 17.7302V10.8538C21.7139 9.9703 21.4589 9.57764 20.7227 9.57764H15.2665C14.7155 9.57764 14.383 9.98614 14.383 10.3756C14.383 11.2116 15.6339 11.4048 15.7621 13.7608V18.8718C15.7621 19.9912 15.561 20.1955 15.1177 20.1955C13.9413 20.1955 11.0786 15.8746 9.37969 10.9282C9.04877 9.96714 8.71469 9.57922 7.82802 9.57922H4.35735C3.3646 9.57922 3.16669 10.0463 3.16669 10.5593C3.16669 11.4808 4.3431 16.0408 8.6466 22.0717C11.5156 26.19 15.5547 28.4225 19.2344 28.4225C21.4399 28.4225 21.7123 27.9269 21.7123 27.0719V23.9591C21.7123 22.9679 21.9229 22.7684 22.6211 22.7684C23.1341 22.7684 24.0176 23.0281 26.0775 25.012C28.4304 27.3648 28.8199 28.4209 30.1419 28.4209H33.6126C34.6038 28.4209 35.0994 27.9253 34.8144 26.9468C34.5024 25.9731 33.3783 24.556 31.8868 22.8792C31.0761 21.9229 29.8649 20.8937 29.4959 20.3791C28.9814 19.7157 29.1302 19.4228 29.4959 18.8338C29.4975 18.8354 33.7266 12.8789 34.1668 10.8538Z"/>
</svg>
