<svg width="32" height="32" viewBox="0 0 32 32" xmlns="http://www.w3.org/2000/svg">
<path d="M26.6666 7.99984V5.33317C26.6666 3.8625 25.4706 2.6665 24 2.6665H6.66663C5.05863 2.6665 2.66663 3.73184 2.66663 6.6665V23.9998C2.66663 26.9345 5.05863 27.9998 6.66663 27.9998H26.6666C28.1386 27.9998 29.3333 26.8052 29.3333 25.3332V10.6665C29.3333 9.1945 28.1386 7.99984 26.6666 7.99984ZM5.33329 6.6665C5.33329 5.59317 6.06663 5.34917 6.66663 5.33317H24V7.99984H6.68263C6.06663 7.98384 5.33329 7.73984 5.33329 6.6665ZM25.3333 21.3332H22.6666V14.6665H25.3333V21.3332Z"/>
</svg>
