<svg width="34" height="34" viewBox="0 0 34 34" xmlns="http://www.w3.org/2000/svg">
<path d="M8.49437 12.7502C10.4961 12.7502 11.5544 11.6919 12.3265 10.9184C13.0206 10.2242 13.362 9.91683 14.1568 9.91683C14.9515 9.91683 15.293 10.2242 15.9871 10.9184C16.7592 11.6919 17.8175 12.7502 19.8206 12.7502C21.8252 12.7502 22.8849 11.6919 23.6598 10.9184C24.3554 10.2242 24.6968 9.91683 25.4944 9.91683C26.292 9.91683 26.6334 10.2242 27.329 10.9184C28.1025 11.6919 29.1621 12.7502 31.1667 12.7502V9.91683C30.3691 9.91683 30.0277 9.60941 29.3321 8.91525C28.5586 8.14175 27.499 7.0835 25.4944 7.0835C23.4898 7.0835 22.4315 8.14175 21.6566 8.91383C20.961 9.60941 20.621 9.91683 19.8206 9.91683C19.0245 9.91683 18.6845 9.60941 17.9903 8.91525C17.2182 8.14175 16.16 7.0835 14.1568 7.0835C12.1536 7.0835 11.0954 8.14175 10.3233 8.91525C9.62912 9.60941 9.28912 9.91683 8.49437 9.91683C7.69962 9.91683 7.35962 9.60941 6.66546 8.91525C5.89337 8.14175 4.83512 7.0835 2.83337 7.0835V9.91683C3.62812 9.91683 3.96812 10.2242 4.66229 10.9184C5.43437 11.6919 6.49262 12.7502 8.49437 12.7502ZM8.49437 19.8335C10.4961 19.8335 11.5544 18.7752 12.3265 18.0017C13.0206 17.3076 13.362 17.0002 14.1568 17.0002C14.9515 17.0002 15.293 17.3076 15.9871 18.0017C16.7592 18.7752 17.8175 19.8335 19.8206 19.8335C21.8252 19.8335 22.8849 18.7752 23.6598 18.0017C24.3554 17.3076 24.6968 17.0002 25.4944 17.0002C26.292 17.0002 26.6334 17.3076 27.329 18.0017C28.1025 18.7752 29.1621 19.8335 31.1667 19.8335V17.0002C30.3691 17.0002 30.0277 16.6927 29.3321 15.9986C28.5586 15.2251 27.499 14.1668 25.4944 14.1668C23.4898 14.1668 22.4315 15.2251 21.6566 15.9972C20.961 16.6927 20.621 17.0002 19.8206 17.0002C19.0245 17.0002 18.6845 16.6927 17.9903 15.9986C17.2182 15.2251 16.16 14.1668 14.1568 14.1668C12.1536 14.1668 11.0954 15.2251 10.3233 15.9986C9.62912 16.6927 9.28912 17.0002 8.49437 17.0002C7.69962 17.0002 7.35962 16.6927 6.66546 15.9986C5.89337 15.2251 4.83512 14.1668 2.83337 14.1668V17.0002C3.62812 17.0002 3.96812 17.3076 4.66229 18.0017C5.43437 18.7752 6.49262 19.8335 8.49437 19.8335ZM8.49437 26.9168C10.4961 26.9168 11.5544 25.8586 12.3265 25.0851C13.0206 24.3909 13.362 24.0835 14.1568 24.0835C14.9515 24.0835 15.293 24.3909 15.9871 25.0851C16.7592 25.8586 17.8175 26.9168 19.8206 26.9168C21.8252 26.9168 22.8849 25.8586 23.6598 25.0851C24.3554 24.3909 24.6968 24.0835 25.4944 24.0835C26.292 24.0835 26.6334 24.3909 27.329 25.0851C28.1025 25.8586 29.1621 26.9168 31.1667 26.9168V24.0835C30.3691 24.0835 30.0277 23.7761 29.3321 23.0819C28.5586 22.3084 27.499 21.2502 25.4944 21.2502C23.4898 21.2502 22.4315 22.3084 21.6566 23.0805C20.961 23.7761 20.621 24.0835 19.8206 24.0835C19.0245 24.0835 18.6845 23.7761 17.9903 23.0819C17.2182 22.3084 16.16 21.2502 14.1568 21.2502C12.1536 21.2502 11.0954 22.3084 10.3233 23.0819C9.62912 23.7761 9.28912 24.0835 8.49437 24.0835C7.69962 24.0835 7.35962 23.7761 6.66546 23.0819C5.89337 22.3084 4.83512 21.2502 2.83337 21.2502V24.0835C3.62812 24.0835 3.96812 24.3909 4.66229 25.0851C5.43437 25.8586 6.49262 26.9168 8.49437 26.9168Z"/>
</svg>
