<?xml version="1.0" encoding="utf-8"?><svg viewBox="0 0 148 54" xmlns="http://www.w3.org/2000/svg" xmlns:xlink="http://www.w3.org/1999/xlink"><style>:root>svg{display:none}:root>svg:target{display:block}</style><svg viewBox="0 0 96 54" id="apptech" xmlns="http://www.w3.org/2000/svg"><path d="M81.936 1.672h-68.39C6.082 1.672 0 7.754 0 15.218c0 7.463 6.082 13.545 13.546 13.545h68.39c7.475 0 13.545-6.082 13.545-13.545 0-7.464-6.07-13.546-13.545-13.546z" fill="#fff" fill-opacity=".25"/><path d="M14.125 36.416v11.88h-3.673v-1.122c-.803.898-2.008 1.453-3.65 1.453-3.212 0-5.857-2.728-5.857-6.271 0-3.543 2.645-6.271 5.858-6.271 1.641 0 2.846.543 3.649 1.453v-1.122h3.673zm-3.673 5.952c0-1.784-1.228-2.906-2.917-2.906-1.689 0-2.917 1.122-2.917 2.906 0 1.783 1.228 2.905 2.917 2.905 1.689-.012 2.917-1.122 2.917-2.905zm19.544 0c0 3.543-2.645 6.27-5.857 6.27-1.642 0-2.846-.543-3.65-1.452v5.87h-3.672v-16.64h3.673v1.122c.803-.91 2.007-1.453 3.649-1.453 3.212 0 5.857 2.74 5.857 6.283zm-3.672 0c0-1.784-1.229-2.906-2.917-2.906-1.69 0-2.917 1.122-2.917 2.906 0 1.783 1.228 2.905 2.917 2.905 1.688-.012 2.917-1.122 2.917-2.905zm18.943 0c0 3.543-2.645 6.27-5.857 6.27-1.642 0-2.846-.543-3.65-1.452v5.87h-3.672v-16.64h3.673v1.122c.803-.91 2.007-1.453 3.649-1.453 3.212 0 5.857 2.74 5.857 6.283zm-3.672 0c0-1.784-1.229-2.906-2.917-2.906-1.69 0-2.917 1.122-2.917 2.906 0 1.783 1.228 2.905 2.917 2.905 1.688-.012 2.917-1.122 2.917-2.905zm10.165-2.527v4.204c0 1.028.91 1.122 2.528 1.028v3.236c-4.807.472-6.2-.922-6.2-4.252v-4.204h-1.96v-3.425h1.96v-2.256l3.673-1.074v3.33h2.527v3.425H51.76v-.012zm10.584 5.609c1.004 0 1.866-.378 2.35-.91l2.94 1.642c-1.204 1.618-3.01 2.445-5.337 2.445-4.193 0-6.79-2.728-6.79-6.271 0-3.543 2.645-6.271 6.518-6.271 3.578 0 6.224 2.68 6.224 6.27 0 .497-.047.981-.142 1.43h-8.703c.46 1.24 1.594 1.665 2.94 1.665zm2.256-4.322c-.39-1.382-1.5-1.878-2.598-1.878-1.394 0-2.327.661-2.67 1.878H64.6zm4.994 1.24c0-3.543 2.763-6.271 6.495-6.271 2.374 0 4.488 1.216 5.539 3.047l-3.213 1.806c-.413-.826-1.299-1.334-2.373-1.334-1.595 0-2.764 1.122-2.764 2.763 0 1.642 1.181 2.752 2.764 2.752 1.074 0 1.984-.496 2.373-1.334l3.213 1.783c-1.051 1.854-3.142 3.07-5.54 3.07-3.72-.011-6.494-2.74-6.494-6.282zm25.262-1.358v7.298h-3.673V41.53c0-1.476-.957-2.16-2.138-2.16-1.346 0-2.279.755-2.279 2.444v6.495h-3.673v-16.64h3.673v5.87c.661-.874 1.89-1.453 3.507-1.453 2.48 0 4.583 1.713 4.583 4.925zm-6.768-18.188c4.201-4.201 4.201-11.013 0-15.215-4.202-4.201-11.014-4.201-15.215 0-4.202 4.202-4.202 11.014 0 15.215 4.201 4.202 11.013 4.202 15.215 0z" fill="#fff"/><path opacity=".35" d="M47.746 25.976c5.942 0 10.758-4.817 10.758-10.758 0-5.942-4.816-10.759-10.758-10.759-5.942 0-10.759 4.817-10.759 10.759 0 5.941 4.817 10.758 10.759 10.758z" fill="#fff"/><path opacity=".5" d="M64.115 25.976c5.942 0 10.758-4.817 10.758-10.758 0-5.942-4.816-10.759-10.758-10.759-5.942 0-10.759 4.817-10.759 10.759 0 5.941 4.817 10.758 10.759 10.758z" fill="#fff"/><path opacity=".2" d="M31.378 25.976c5.942 0 10.759-4.817 10.759-10.758 0-5.942-4.817-10.759-10.759-10.759-5.941 0-10.758 4.817-10.758 10.759 0 5.941 4.817 10.758 10.758 10.758z" fill="#fff"/><path opacity=".1" d="M15.011 25.976c5.942 0 10.759-4.817 10.759-10.758 0-5.942-4.817-10.759-10.759-10.759S4.252 9.276 4.252 15.218c0 5.941 4.817 10.758 10.759 10.758z" fill="#fff"/></svg><svg viewBox="0 0 14 8" id="arrow-bottom" xmlns="http://www.w3.org/2000/svg"><path d="M1 1l6 6 6-6"/></svg><svg fill="none" viewBox="0 0 22 40" id="arrow-right" xmlns="http://www.w3.org/2000/svg"><path d="M2 2l18 18L2 38" stroke="#8DCB4B" stroke-width="4" stroke-linecap="round" stroke-linejoin="round"/></svg><svg viewBox="0 0 32 32" id="bolt" xmlns="http://www.w3.org/2000/svg"><path d="M22.89 10.666h-5.557l1.075-6.446a1.334 1.334 0 0 0-1.316-1.553h-6.87c-.651 0-1.207.472-1.314 1.113L6.685 17.113A1.333 1.333 0 0 0 8 18.666h5.333v10.667l10.68-16.612a1.334 1.334 0 0 0-1.122-2.055z"/></svg><svg viewBox="0 0 34 34" id="bolt-circle" xmlns="http://www.w3.org/2000/svg"><path d="M17 2.833C9.189 2.833 2.833 9.19 2.833 17c0 7.812 6.356 14.167 14.167 14.167S31.167 24.812 31.167 17C31.167 9.19 24.81 2.834 17 2.834zM15.583 25.5v-7.083H9.917l8.5-9.917v7.084h5.666l-8.5 9.916z"/></svg><svg viewBox="0 0 32 32" id="bus" xmlns="http://www.w3.org/2000/svg"><path d="M28 12V8.028c.004-.195-.01-1.954-1.733-3.647-1.698-1.667-3.41-1.715-3.6-1.715H9.328c-.319 0-1.99.085-3.61 1.736C4.047 6.104 4 7.813 4 8v4H2.667v4H4v8c0 1.472-.139 2.666 1.333 2.666V28c0 .737.596 1.333 1.334 1.333H8c.737 0 1.333-.596 1.333-1.333v-1.334h13.334V28c0 .737.596 1.333 1.333 1.333h1.333c.738 0 1.334-.596 1.334-1.333v-2.667l-1.334 1.334A2.668 2.668 0 0 0 28 24v-8h1.333v-4H28zM12 5.333h8V8h-8V5.333zM9.333 22.655H6.667V20h2.666v2.654zm5.334-5.322h-8v-6.666h8v6.666zm10.666 5.322h-2.666V20h2.666v2.654zm0-5.322h-8v-6.666h8v6.666z"/></svg><svg viewBox="0 0 24 24" id="calendar" xmlns="http://www.w3.org/2000/svg"><path d="M21 20V6c0-1.103-.897-2-2-2h-2V2h-2v2H9V2H7v2H5c-1.103 0-2 .897-2 2v14c0 1.103.897 2 2 2h14c1.103 0 2-.897 2-2zM9 18H7v-2h2v2zm0-4H7v-2h2v2zm4 4h-2v-2h2v2zm0-4h-2v-2h2v2zm4 4h-2v-2h2v2zm0-4h-2v-2h2v2zm2-5H5V7h14v2z"/></svg><svg viewBox="0 0 32 32" id="chat" xmlns="http://www.w3.org/2000/svg"><path d="M21.333 8h-16a2.67 2.67 0 0 0-2.666 2.667v10.666A2.67 2.67 0 0 0 5.333 24H8v5.441L14.801 24h6.532A2.67 2.67 0 0 0 24 21.333V10.667A2.67 2.67 0 0 0 21.333 8z"/><path d="M26.667 2.667H9.333v2.666h17.334v12h2.666v-12a2.67 2.67 0 0 0-2.666-2.667z"/></svg><svg viewBox="0 0 16 16" id="checked" xmlns="http://www.w3.org/2000/svg"><path d="M2.583.417c-1.196 0-2.166.97-2.166 2.166v10.834c0 1.196.97 2.166 2.166 2.166h10.834c1.196 0 2.166-.97 2.166-2.167V2.583c0-1.196-.97-2.166-2.166-2.166H2.583zm4.334 11.281L3.984 8.766l1.532-1.532 1.4 1.4 4.11-4.108 1.532 1.531-5.641 5.641z"/></svg><svg viewBox="0 0 28 28" id="cloud-download" xmlns="http://www.w3.org/2000/svg"><path d="M22.101 12.964c-.51-4.016-3.948-7.13-8.101-7.13-3.215 0-6.008 1.878-7.283 4.84-2.506.75-4.384 3.116-4.384 5.66 0 3.1 2.438 5.617 5.493 5.799v.034h13.162v-.004l.012.004a4.671 4.671 0 0 0 4.667-4.667 4.677 4.677 0 0 0-3.566-4.536zM9.333 14h3.5v-3.5h2.334V14h3.5L14 19.833 9.333 14z"/></svg><svg viewBox="0 0 30 30" id="cross" xmlns="http://www.w3.org/2000/svg"><path d="M20.24 7.93l-5.304 5.303L9.634 7.93 7.866 9.698 13.17 15l-5.303 5.303 1.768 1.767 5.302-5.302 5.304 5.302 1.768-1.767L16.704 15l5.303-5.302L20.24 7.93z"/></svg><svg viewBox="0 0 34 34" id="directions" xmlns="http://www.w3.org/2000/svg"><g clip-path="url(#alclip0)"><path d="M27.083 18.75h-8.5V14.5h8.5a2.834 2.834 0 0 0 2.834-2.833V8.833A2.834 2.834 0 0 0 27.083 6H7.25L3 10.25l4.25 4.25h8.5v4.25h-8.5a2.834 2.834 0 0 0-2.833 2.833v2.834A2.834 2.834 0 0 0 7.25 27.25h8.5v7.083h2.833V27.25h8.5l4.25-4.25-4.25-4.25z"/></g><defs><clipPath id="alclip0"><path d="M0 0h34v34H0z"/></clipPath></defs></svg><svg viewBox="0 0 32 32" id="dish" xmlns="http://www.w3.org/2000/svg"><path d="M17.333 8.062V5.334h-2.666v2.728c-6.728.604-12 5.726-12 11.938v1.334h26.666V20c0-6.212-5.272-11.335-12-11.938zM2.667 24h26.666v2.667H2.667V24z"/></svg><svg viewBox="0 0 32 32" id="error-circle" xmlns="http://www.w3.org/2000/svg"><path d="M15.937 2.667C8.62 2.667 2.667 8.646 2.667 16c0 7.352 5.981 13.333 13.333 13.333S29.333 23.352 29.333 16 23.324 2.666 15.937 2.666zm1.396 20h-2.666V20h2.666v2.666zm0-5.334h-2.666v-8h2.666v8z"/></svg><svg viewBox="0 0 32 32" id="file-doc" xmlns="http://www.w3.org/2000/svg"><path d="M16.248 19.402c-.823 0-1.303.783-1.303 1.831 0 1.055.495 1.8 1.311 1.8.823 0 1.295-.784 1.295-1.832 0-.968-.464-1.799-1.303-1.799z"/><path d="M18.667 2.667H8a2.668 2.668 0 0 0-2.667 2.666v21.334A2.668 2.668 0 0 0 8 29.332h16a2.668 2.668 0 0 0 2.667-2.666v-16l-8-8zm-6.46 20.605c-.568.472-1.431.695-2.486.695-.633 0-1.08-.04-1.384-.08v-5.295c.448-.072 1.031-.11 1.647-.11 1.024 0 1.688.183 2.207.575.56.416.912 1.08.912 2.03 0 1.033-.376 1.745-.896 2.185zm3.986.728c-1.6 0-2.534-1.208-2.534-2.744 0-1.615 1.03-2.822 2.622-2.822 1.655 0 2.559 1.24 2.559 2.727C18.839 22.928 17.767 24 16.193 24zm6.207-1.016c.367 0 .775-.082 1.016-.176l.184.95c-.224.113-.728.233-1.383.233-1.862 0-2.822-1.16-2.822-2.695 0-1.839 1.31-2.861 2.942-2.861.632 0 1.111.128 1.327.24l-.248.967c-.25-.104-.592-.2-1.024-.2-.968 0-1.72.584-1.72 1.785 0 1.078.64 1.757 1.728 1.757zM18.667 12h-1.334V5.333L24 12h-5.333z"/><path d="M10.112 19.418c-.27 0-.447.024-.55.047v3.527c.103.024.271.024.422.024 1.104.008 1.823-.598 1.823-1.886.008-1.12-.647-1.712-1.695-1.712z"/><path d="M8 18h17v9H8z"/></svg><svg viewBox="0 0 32 32" id="flag-alt" xmlns="http://www.w3.org/2000/svg"><path d="M19.07 8l-4-2.667H8V2.667H5.333v26.666H8V18.667h6.263l4 2.666h8.404V8H19.07z"/></svg><svg viewBox="0 0 38 38" id="instagram" xmlns="http://www.w3.org/2000/svg"><path d="M33.166 13.15a10.338 10.338 0 0 0-.663-3.509 7.299 7.299 0 0 0-4.17-4.169 10.46 10.46 0 0 0-3.46-.665C23.349 4.74 22.866 4.72 19 4.72c-3.867 0-4.362 0-5.874.087a10.459 10.459 0 0 0-3.46.665 7.294 7.294 0 0 0-4.169 4.17 10.377 10.377 0 0 0-.663 3.459c-.068 1.524-.089 2.007-.089 5.874 0 3.866 0 4.36.089 5.874.024 1.184.247 2.353.663 3.463a7.299 7.299 0 0 0 4.17 4.167c1.103.43 2.273.675 3.46.713 1.525.068 2.008.088 5.875.088 3.866 0 4.362 0 5.874-.088a10.433 10.433 0 0 0 3.46-.664 7.308 7.308 0 0 0 4.17-4.169c.416-1.108.64-2.277.663-3.462.068-1.523.089-2.006.089-5.874-.003-3.867-.003-4.358-.092-5.873zM18.991 26.287a7.318 7.318 0 0 1-7.32-7.32 7.32 7.32 0 1 1 7.32 7.32zm7.61-13.204a1.705 1.705 0 0 1-1.706-1.707 1.705 1.705 0 1 1 3.412 0c0 .944-.763 1.707-1.705 1.707z"/><path d="M18.99 23.721a4.755 4.755 0 1 0 0-9.51 4.755 4.755 0 0 0 0 9.51z"/></svg><svg viewBox="0 0 32 32" id="institution" xmlns="http://www.w3.org/2000/svg"><path d="M29.143 11.313l-4-6.666A1.33 1.33 0 0 0 24 4h-6.115l-.942-.943a1.332 1.332 0 0 0-1.886 0L14.115 4H8c-.47 0-.903.245-1.143.647l-4 6.666c-.126.212-.188.45-.188.687h-.002v13.333c0 .736.596 1.334 1.333 1.334h24c.737 0 1.333-.598 1.333-1.334V12h-.002c0-.237-.062-.475-.188-.687zM26.667 24h-8v-5.333h-5.334V24h-8V13.333h3.219l.39-.39 2.667-2.667L16 5.886l5.724 5.723 1.333 1.334.391.39h3.219V24z"/><path d="M15.86 16a2.807 2.807 0 1 0 0-5.613 2.807 2.807 0 0 0 0 5.613zM8 16h2.667v4H8v-4zm13.333 0H24v4h-2.667v-4z"/></svg><svg fill="none" viewBox="0 0 148 39" id="logo" xmlns="http://www.w3.org/2000/svg"><g clip-path="url(#asclip0)" fill="#fff"><path d="M9.717 36.927a2.028 2.028 0 0 1-2.04 2.018 2.028 2.028 0 0 1-2.024-2.258h4.049c.007.08.015.16.015.24zm14.446 0a2.028 2.028 0 0 1-2.039 2.018 2.028 2.028 0 0 1-2.024-2.258h4.048c.008.08.015.16.015.24zM21.66 2.196V3.96h-1.09V2.196a.861.861 0 0 0-.67-.837c-4.637 1.27-8.744.35-9.86.047a.858.858 0 0 0-.522.79V3.96h-1.09V2.196c0-1.07.88-1.941 1.958-1.941h.288c1.873.226 5.105.455 8.76 0h.268a1.953 1.953 0 0 1 1.958 1.941zm3.979 2.521H4.181C1.877 4.717 0 6.574 0 8.858V31.89c0 2.28 1.877 4.138 4.181 4.138h21.454c2.308 0 4.181-1.858 4.181-4.138V8.858c.004-2.284-1.873-4.141-4.177-4.141zm3.092 27.173c0 1.391-.943 2.568-2.23 2.94-14.385-1.086-23.09.014-23.09.014h-.043c-1.31-.354-2.279-1.545-2.279-2.954V8.858c0-1.686 1.388-3.06 3.092-3.06h21.454c1.704 0 3.092 1.374 3.092 3.06V31.89h.004z"/><path d="M23.67 7.853H5.694c-1.686 0-3.051 1.351-3.051 3.02v1.548c0 1.668 1.365 3.02 3.05 3.02H23.67c1.686 0 3.051-1.352 3.051-3.02v-1.548c-.004-1.669-1.37-3.02-3.051-3.02zm0 8.727H5.694c-1.686 0-3.051 1.352-3.051 3.02v1.548c0 1.669 1.365 3.02 3.05 3.02H23.67c1.686 0 3.051-1.351 3.051-3.02V19.6c-.004-1.668-1.37-3.02-3.051-3.02zm0 8.724H5.694c-1.686 0-3.051 1.351-3.051 3.02v1.547c0 1.669 1.365 3.02 3.05 3.02H23.67c1.686 0 3.051-1.351 3.051-3.02v-1.548c-.004-1.664-1.37-3.02-3.051-3.02zM56.895 6.84l-.792-2.458a7.671 7.671 0 0 0-.25-.641C55.109 1.887 53.75.96 51.783.96H47.71v8.874h6.913v1.07H47.71v9.515h4.071c.457 0 .887-.048 1.296-.142 1.369-.357 2.363-1.45 2.988-3.279l.828-2.458h1.046l-.144 6.84H39.787v-.961h2.882V.962h-2.882V0h18.005l.144 6.84h-1.041zm11.339 13.652c.313.047.468.346.468.892h-8.425v-.925c.191 0 .372-.01.541-.036 1.03-.12 1.55-.725 1.55-1.818V6.985H60.28v-.924h6.411l.18 2.779c.218-.426.505-.842.865-1.246 1.226-1.377 2.713-2.065 4.465-2.065.626 0 1.226.095 1.8.284 2.113.736 3.169 2.579 3.169 5.522v9.124h1.189c.143 0 .287.011.43.037.313.047.468.346.468.892H70.94v-.925c.335 0 .625-.037.865-.106.526-.167.79-.746.79-1.744v-7.886c0-.332-.025-.652-.073-.962-.239-1.592-1.045-2.386-2.414-2.386-.36 0-.707.084-1.046.248-1.225.594-1.92 1.828-2.086 3.708l-.037 9.124h.902c.143-.003.276.008.393.033zm26.865-1.675c-1.226 1.949-3.243 2.921-6.051 2.921-1.583 0-3-.32-4.247-.961-2.617-1.355-3.924-3.756-3.924-7.198 0-2.112.578-3.882 1.73-5.31 1.513-1.829 3.625-2.743 6.338-2.743 1.487 0 2.82.248 3.997.747 2.087.925 3.132 2.4 3.132 4.418 0 .404-.073.772-.217 1.104-.626 1.33-2.87 1.937-6.735 1.817l-3.313-.105c.022 1.376.144 2.564.36 3.562.553 2.422 1.79 3.635 3.71 3.635.6 0 1.19-.106 1.764-.32 1.439-.521 2.495-1.508 3.169-2.958l.865.284a5.4 5.4 0 0 1-.578 1.107zm-9.29-6.345l2.304.106c.96.047 1.678-.011 2.16-.179.674-.262 1.01-.95 1.01-2.065-.027-2.542-.807-3.836-2.342-3.883-1.921.07-2.966 2.08-3.132 6.021zm21.568 8.02c.313.048.468.346.468.893H97.653v-.925c.313 0 .59-.022.828-.073.84-.142 1.26-.736 1.26-1.781V6.986h-2.088v-.925h6.301l.251 3.315a6.303 6.303 0 0 1 1.152-1.854c1.126-1.166 2.436-1.745 3.923-1.745.313 0 .611.036.902.105 1.174.31 1.763 1.057 1.763 2.244 0 .332-.074.652-.217.962-.409.903-1.093 1.355-2.054 1.355a2.85 2.85 0 0 1-.791-.106c-.505-.19-.972-.666-1.406-1.424-.313-.546-.6-.82-.865-.82-.144 0-.302.037-.468.106-1.056.546-1.667 2.065-1.836 4.56v7.697h2.664c.155 0 .288.011.405.037zm17.756-13.899c.095-.263.202-.521.323-.783.696-1.425 1.668-2.139 2.915-2.139.457 0 .876.084 1.259.248.839.357 1.259.962 1.259 1.818 0 .12-.011.236-.037.357-.169.666-.611.998-1.332.998-.313 0-.648-.142-1.009-.426-.456-.405-.839-.605-1.152-.605-.578.025-1.082.368-1.512 1.034 1.295 1.119 1.958 2.543 1.98 4.277a5.757 5.757 0 0 1-1.152 3.493c-1.344 1.78-3.339 2.673-5.978 2.673l-3.853-.036c-.096 0-.192.01-.287.036-.6.073-.902.38-.902.925 0 .073.011.142.037.215.121.525.493.798 1.115.82l7.453.142c.335 0 .659.026.972.073 2.639.331 3.96 1.697 3.96 4.098 0 .619-.18 1.213-.541 1.78-1.152 1.83-3.699 2.744-7.633 2.744-1.635 0-3.026-.215-4.178-.642-1.704-.64-2.558-1.602-2.558-2.884 0-.714.313-1.44.935-2.175-.865-.714-1.31-1.639-1.332-2.78 0-.473.095-.95.287-1.423.552-1.26 1.535-1.876 2.952-1.854h.036a8.742 8.742 0 0 1-.971-.641c-1.682-1.283-2.522-2.78-2.522-4.492 0-1.213.361-2.305 1.083-3.278 1.295-1.76 3.338-2.637 6.12-2.637 1.693-.007 3.11.35 4.263 1.064zm-1.009 20.492c2.234-.426 3.349-1.198 3.349-2.316 0-.237-.047-.441-.143-.605-.239-.426-1.057-.641-2.448-.641l-7.273-.073c-.53 0-1.034-.095-1.512-.284-.361.499-.541.998-.541 1.497 0 .262.059.52.18.783.6 1.282 2.363 1.923 5.293 1.923 1.126 0 2.156-.094 3.095-.284zm-5.617-12.118c.288 1.092 1.02 1.639 2.198 1.639.721 0 1.284-.2 1.693-.605.578-.64.865-2.16.865-4.56 0-1.566-.085-2.685-.251-3.351-.312-1.093-1.067-1.64-2.267-1.64-.743 0-1.31.215-1.693.642-.53.619-.791 2.101-.791 4.454-.008 1.64.077 2.78.246 3.42z"/><path d="M135.791 26.944c1.057-.38 2.161-1.986 3.313-4.812L132.081 6.95h-1.512v-.892h8.461v.892h-2.197l4.358 9.944 3.923-9.944h-2.701v-.892h5.58c0 .12-.011.236-.037.357-.048.357-.335.535-.865.535-.383.047-.78.393-1.189 1.034l-5.403 13.864c-.456 1.187-.935 2.196-1.439 3.03-1.321 2.306-2.989 3.457-5.006 3.457-.887 0-1.667-.178-2.341-.535-.96-.5-1.439-1.14-1.439-1.924 0-.167.026-.346.074-.535.239-.736.791-1.104 1.656-1.104.409 0 .769.106 1.082.32.265.216.563.737.902 1.567.265.641.611.962 1.045.962.24 0 .493-.048.758-.142zm-96.033.454v-1.384h9.577v1.384H45.3v11.547h-1.513V27.398h-4.03zm21.896 11.325v.222h-1.642l-3.622-4.75h-3.415v4.75h-1.568V25.992h5.208c2.687 0 4.46 1.81 4.46 4.156 0 1.996-1.288 3.399-3.117 3.843l3.696 4.732zM56.61 32.92c1.66 0 2.948-1.107 2.948-2.79 0-1.66-1.251-2.772-2.948-2.772h-3.658v5.562h3.658zm8.927 2.827l-1.532 3.195h-1.623v-.204l6.084-12.785h.71l6.03 12.785v.204H73.6l-1.531-3.195h-6.533zm.522-1.33h5.488l-2.746-6.042-2.742 6.043zm17.38-2.954l2.241-5.449h1.66v.223l-5.432 12.767h-.655l-5.47-12.771v-.222h1.66l2.26 5.449 1.885 4.84h.018l1.833-4.836zm13.644-4.101h-6.029v4.229h5.823v1.347h-5.823v4.583h6.235v1.424h-7.803v-12.93h7.597v1.347zm4.593 10.195h6.162v1.384h-7.73v-12.93h1.568v11.546z"/></g><defs><clipPath id="asclip0"><path fill="#fff" d="M0 0h148v39H0z"/></clipPath></defs></svg><svg fill="none" viewBox="0 0 129 34" id="logo-colored" xmlns="http://www.w3.org/2000/svg"><g clip-path="url(#atclip0)"><path d="M8.47 32.194c0 .971-.796 1.759-1.778 1.759a1.768 1.768 0 0 1-1.764-1.97h3.529c.006.07.012.14.012.21zm12.591 0c0 .971-.796 1.759-1.777 1.759a1.768 1.768 0 0 1-1.765-1.97h3.53c.006.07.012.14.012.21zM18.88 1.915v1.537h-.95V1.915a.75.75 0 0 0-.584-.73c-4.042 1.108-7.622.304-8.594.04a.748.748 0 0 0-.456.69v1.537h-.95V1.915c0-.934.767-1.693 1.707-1.693h.25c1.633.197 4.45.397 7.636 0h.234a1.702 1.702 0 0 1 1.707 1.693zm3.468 2.197H3.643C1.636 4.112 0 5.732 0 7.722v20.08c0 1.987 1.636 3.607 3.644 3.607h18.7c2.012 0 3.645-1.62 3.645-3.607V7.722c.003-1.99-1.633-3.61-3.642-3.61zm2.694 23.69a2.677 2.677 0 0 1-1.944 2.562c-12.537-.946-20.124.013-20.124.013h-.039A2.678 2.678 0 0 1 .95 27.802V7.722c0-1.47 1.209-2.667 2.694-2.667h18.7c1.486 0 2.695 1.198 2.695 2.668V27.8h.003z" fill="#111449"/><path d="M20.631 6.846H4.963c-1.47 0-2.66 1.178-2.66 2.633v1.35c0 1.454 1.19 2.632 2.66 2.632h15.668c1.47 0 2.66-1.178 2.66-2.633v-1.35a2.65 2.65 0 0 0-2.66-2.632z" fill="#B8EF7D"/><path d="M20.631 14.455H4.963c-1.47 0-2.66 1.178-2.66 2.632v1.35c0 1.454 1.19 2.632 2.66 2.632h15.668c1.47 0 2.66-1.178 2.66-2.632v-1.35a2.65 2.65 0 0 0-2.66-2.632z" fill="#92D43B"/><path d="M20.631 22.06H4.963c-1.47 0-2.66 1.178-2.66 2.633v1.35c0 1.454 1.19 2.632 2.66 2.632h15.668c1.47 0 2.66-1.178 2.66-2.633v-1.35c-.003-1.45-1.194-2.632-2.66-2.632z" fill="#78CE2C"/><path d="M49.59 5.964L48.9 3.82a6.712 6.712 0 0 0-.217-.559C48.035 1.645 46.85.838 45.135.838h-3.549v7.736h6.025v.933h-6.025v8.295h3.549c.397 0 .773-.041 1.129-.124 1.193-.311 2.06-1.264 2.605-2.858l.722-2.143h.91l-.124 5.963H34.679v-.838h2.512V.838H34.68V0h15.694l.126 5.964h-.908zm9.885 11.901c.272.042.407.302.407.778H52.54v-.806c.167 0 .324-.01.471-.032.899-.105 1.351-.632 1.351-1.585V6.09h-1.819v-.806h5.588l.158 2.423c.189-.372.44-.734.754-1.086 1.068-1.2 2.364-1.8 3.891-1.8.545 0 1.068.082 1.569.247 1.841.641 2.762 2.248 2.762 4.814v7.955H68.3c.125 0 .25.01.376.031.272.042.407.302.407.778h-7.25v-.806c.292 0 .545-.032.754-.092.458-.146.69-.651.69-1.521V9.352c0-.29-.023-.569-.065-.839-.208-1.387-.911-2.08-2.104-2.08-.315 0-.616.074-.911.216-1.069.518-1.675 1.594-1.82 3.233l-.032 7.955h.786c.126-.003.241.006.344.028zm23.415-1.46c-1.068 1.699-2.826 2.546-5.274 2.546-1.38 0-2.614-.279-3.702-.838-2.28-1.181-3.42-3.274-3.42-6.275 0-1.841.504-3.385 1.508-4.63 1.319-1.594 3.16-2.39 5.525-2.39 1.296 0 2.457.215 3.483.65 1.82.807 2.73 2.093 2.73 3.852 0 .353-.064.673-.189.962-.545 1.16-2.502 1.69-5.87 1.585l-2.888-.092c.02 1.2.125 2.235.315 3.105.48 2.112 1.559 3.17 3.233 3.17.523 0 1.037-.092 1.537-.28 1.254-.454 2.175-1.314 2.762-2.578l.754.247a4.713 4.713 0 0 1-.504.966zm-8.097-5.532l2.008.092c.838.041 1.463-.01 1.884-.155.587-.23.879-.83.879-1.801-.023-2.216-.703-3.344-2.04-3.385-1.675.06-2.586 1.813-2.73 5.249zm18.799 6.992c.273.041.408.302.408.778h-8.883v-.806a3.5 3.5 0 0 0 .721-.064c.732-.124 1.098-.641 1.098-1.553V6.09h-1.82v-.806h5.493l.218 2.89a5.51 5.51 0 0 1 1.004-1.617c.982-1.016 2.124-1.52 3.42-1.52.273 0 .532.03.786.091 1.023.27 1.537.921 1.537 1.956 0 .29-.064.569-.19.839-.356.787-.952 1.18-1.79 1.18a2.48 2.48 0 0 1-.69-.091c-.439-.165-.846-.581-1.225-1.242-.273-.476-.523-.714-.754-.714-.125 0-.263.032-.407.092-.921.476-1.454 1.8-1.601 3.976v6.71h2.323c.134 0 .25.009.352.031zm15.476-12.118a8.96 8.96 0 0 1 .283-.682c.606-1.242 1.453-1.864 2.54-1.864.398 0 .764.073 1.098.216.731.31 1.097.838 1.097 1.584 0 .105-.01.207-.032.311-.148.582-.533.87-1.162.87-.272 0-.564-.123-.879-.371-.397-.353-.731-.527-1.004-.527-.503.022-.943.32-1.318.902 1.129.975 1.706 2.216 1.726 3.728a5.021 5.021 0 0 1-1.004 3.045c-1.171 1.553-2.91 2.33-5.21 2.33l-3.359-.031a.96.96 0 0 0-.25.032c-.523.063-.786.33-.786.806 0 .064.009.124.032.188.106.457.43.695.972.714l6.496.124c.292 0 .574.022.847.064 2.3.288 3.452 1.48 3.452 3.572 0 .54-.157 1.057-.472 1.553-1.004 1.594-3.224 2.39-6.653 2.39-1.425 0-2.637-.186-3.641-.558-1.486-.559-2.23-1.397-2.23-2.515 0-.622.273-1.254.815-1.896-.754-.622-1.142-1.429-1.162-2.423a3.3 3.3 0 0 1 .25-1.241c.482-1.099 1.338-1.636 2.574-1.617h.032a7.569 7.569 0 0 1-.847-.558c-1.466-1.118-2.198-2.423-2.198-3.916 0-1.057.315-2.01.943-2.858 1.13-1.534 2.91-2.299 5.335-2.299 1.476-.006 2.711.305 3.715.927zm-.879 17.866c1.948-.372 2.92-1.045 2.92-2.02a1.04 1.04 0 0 0-.125-.527c-.209-.371-.921-.559-2.134-.559l-6.339-.063c-.462 0-.901-.083-1.318-.248-.315.435-.472.87-.472 1.305 0 .229.051.454.157.683.523 1.118 2.06 1.676 4.613 1.676.982 0 1.88-.082 2.698-.247zm-4.895-10.565c.25.953.888 1.429 1.915 1.429.629 0 1.12-.175 1.476-.527.503-.56.754-1.883.754-3.976 0-1.365-.074-2.34-.218-2.921-.273-.953-.931-1.43-1.977-1.43-.648 0-1.142.188-1.475.56-.462.54-.69 1.832-.69 3.883-.007 1.43.067 2.423.215 2.982z" fill="#111449"/><path d="M118.359 23.489c.921-.33 1.883-1.73 2.887-4.195L115.125 6.06h-1.318v-.78h7.375v.778h-1.915l3.798 8.669 3.42-8.67h-2.355V5.28h4.864c0 .105-.01.206-.032.311-.042.311-.292.467-.754.467-.334.041-.68.343-1.036.902l-4.71 12.086c-.398 1.035-.815 1.914-1.254 2.642-1.152 2.01-2.605 3.013-4.363 3.013-.773 0-1.454-.155-2.041-.467-.837-.435-1.254-.994-1.254-1.676a1.9 1.9 0 0 1 .064-.467c.209-.642.69-.962 1.444-.962.356 0 .67.092.943.28.231.186.491.64.786 1.365.231.558.533.838.911.838.209 0 .43-.041.661-.124z" fill="#111449"/><path d="M34.654 23.886V22.68H43v1.206h-3.516v10.067h-1.319V23.886h-3.512zm19.084 9.873v.194h-1.43l-3.157-4.141h-2.977v4.14h-1.367v-11.29h4.54c2.341 0 3.888 1.578 3.888 3.623 0 1.74-1.123 2.963-2.718 3.35l3.221 4.125zM49.343 28.7c1.447 0 2.57-.965 2.57-2.432 0-1.448-1.09-2.416-2.57-2.416h-3.189V28.7h3.19zm7.78 2.464l-1.335 2.785h-1.414v-.177l5.302-11.146h.62l5.255 11.146v.177h-1.4l-1.334-2.785h-5.694zm.455-1.159h4.784l-2.394-5.268-2.39 5.268zm15.149-2.575l1.954-4.75h1.447v.193l-4.736 11.13h-.57L66.053 22.87v-.194H67.5l1.97 4.75 1.642 4.221h.016l1.598-4.217zm11.893-3.575h-5.256v3.686h5.076v1.175h-5.076v3.995H84.8v1.242h-6.801V22.68h6.621v1.175zm4.003 8.888h5.37v1.206h-6.737V22.676h1.367v10.067z" fill="#92BC1E"/></g><defs><clipPath id="atclip0"><path fill="#fff" d="M0 0h129v34H0z"/></clipPath></defs></svg><svg viewBox="0 0 24 24" id="mail" xmlns="http://www.w3.org/2000/svg"><path d="M20 4H6c-1.103 0-2 .897-2 2v4h2V8l6.4 4.8a1.001 1.001 0 0 0 1.2 0L20 8v9h-8v2h8c1.103 0 2-.897 2-2V6c0-1.103-.897-2-2-2zm-7 6.75L6.666 6h12.668L13 10.75z"/><path d="M2 12h7v2H2v-2zm2 4h6v2H4v-2zm3 4h4v2H7v-2z"/></svg><svg viewBox="0 0 40 40" id="map" xmlns="http://www.w3.org/2000/svg"><path d="M15 11.47L3.333 5.637v22.06L15 33.53l10-5 11.667 5.833v-22.06L25 6.47l-10 5zM25 25l-10 5V15l10-5v15z"/></svg><svg viewBox="0 0 32 32" id="money" xmlns="http://www.w3.org/2000/svg"><path d="M28 5.333H4c-.737 0-1.333.596-1.333 1.334v18.666c0 .738.596 1.334 1.333 1.334h24c.737 0 1.333-.596 1.333-1.334V6.667c0-.738-.596-1.334-1.333-1.334zM26.667 20a4 4 0 0 0-4 4H9.333a4 4 0 0 0-4-4v-8a4 4 0 0 0 4-4h13.334a4 4 0 0 0 4 4v8z"/><path d="M16 10.667A5.339 5.339 0 0 0 10.667 16 5.339 5.339 0 0 0 16 21.333 5.339 5.339 0 0 0 21.333 16 5.339 5.339 0 0 0 16 10.667zm0 8A2.67 2.67 0 0 1 13.333 16 2.67 2.67 0 0 1 16 13.333 2.67 2.67 0 0 1 18.667 16 2.67 2.67 0 0 1 16 18.667z"/></svg><svg viewBox="0 0 34 34" id="moon" xmlns="http://www.w3.org/2000/svg"><path d="M17 17c0-5.312 3.251-9.863 7.87-11.778A14.096 14.096 0 0 0 17 2.833C9.176 2.833 2.833 9.178 2.833 17c0 7.823 6.343 14.167 14.167 14.167 2.913 0 5.619-.881 7.87-2.389C20.25 26.863 17 22.313 17 17z"/></svg><svg fill="none" viewBox="0 0 18 15" id="next" xmlns="http://www.w3.org/2000/svg"><path d="M.608 8.68H13.84l-4.802 4.8 1.283 1.283 6.992-6.991L10.32.78 9.038 2.064l4.802 4.801H.608V8.68z" fill="#101546"/></svg><svg viewBox="0 0 32 32" id="phone" xmlns="http://www.w3.org/2000/svg"><path d="M17.32 2.667v2.666c5.416 0 9.347 3.924 9.347 9.332h2.666c0-6.84-5.164-11.998-12.013-11.998z"/><path d="M21.333 14.667H24C24 10.367 21.633 8 17.333 8v2.667c2.804 0 4 1.196 4 4zm-7.448-3.058L6.667 4.391l-.935.934L4.399 6.66a1.319 1.319 0 0 0-.388.865c-.02.333-.403 8.23 5.72 14.355 5.342 5.341 12.033 5.732 13.876 5.732.269 0 .434-.008.477-.011.327-.019.635-.156.865-.388l1.334-1.333.929-.93-7.219-7.218-.93.929-2.212 2.213c-.77-.145-2.312-.628-3.902-2.213-1.59-1.59-2.07-3.139-2.214-3.901l2.214-2.214.936-.936z"/></svg><svg viewBox="0 0 27 30" id="play" xmlns="http://www.w3.org/2000/svg"><path d="M26 13.268c1.333.77 1.333 2.694 0 3.464L3.5 29.722c-1.333.77-3-.192-3-1.732V2.01C.5.47 2.167-.492 3.5.278L26 13.268z"/></svg><svg fill="none" viewBox="0 0 17 15" id="prev" xmlns="http://www.w3.org/2000/svg"><path d="M16.937 6.865H3.705l4.802-4.801L7.224.78.232 7.772l6.992 6.992 1.283-1.283L3.705 8.68h13.232V6.865z" fill="#101546"/></svg><svg viewBox="0 0 40 40" id="skull" xmlns="http://www.w3.org/2000/svg"><path d="M20 3.333c-10.825 0-16.667 7.729-16.667 15 0 3.549 1.682 6.632 5 9.18V35h5v-5h3.334v5h6.666v-5h3.334v5h5v-7.488c3.318-2.547 5-5.632 5-9.178 0-7.272-5.842-15-16.667-15zm-6.667 18.334c-1.868 0-3.333-1.83-3.333-4.167 0-2.336 1.465-4.166 3.333-4.166 1.869 0 3.334 1.83 3.334 4.166 0 2.337-1.465 4.167-3.334 4.167zm13.334 0c-1.869 0-3.334-1.83-3.334-4.167 0-2.336 1.465-4.166 3.334-4.166 1.868 0 3.333 1.83 3.333 4.166 0 2.337-1.465 4.167-3.333 4.167z"/></svg><svg viewBox="-5 -5 38 38" id="smile" xmlns="http://www.w3.org/2000/svg"><path d="M14.167 0C6.355 0 0 6.355 0 14.167c0 7.811 6.355 14.166 14.167 14.166 7.811 0 14.166-6.355 14.166-14.166C28.333 6.355 21.978 0 14.167 0zM9.208 8.5c1.173 0 2.125 1.27 2.125 2.833 0 1.564-.952 2.834-2.125 2.834s-2.125-1.27-2.125-2.834S8.035 8.5 9.208 8.5zm4.959 14.167a8.435 8.435 0 0 1-6.8-3.399l2.265-1.701a5.626 5.626 0 0 0 4.535 2.266 5.62 5.62 0 0 0 4.533-2.268l2.267 1.702a8.437 8.437 0 0 1-6.8 3.4zm4.958-8.5c-1.173 0-2.125-1.27-2.125-2.834S17.952 8.5 19.125 8.5s2.125 1.27 2.125 2.833c0 1.564-.952 2.834-2.125 2.834z"/></svg><svg viewBox="0 0 34 34" id="spa" xmlns="http://www.w3.org/2000/svg"><path d="M17 22.828c-5.664-8.43-12.147-9.977-12.438-10.044l-1.729-.388v1.77c0 10.328 5.56 17 14.167 17 8.473 0 14.167-6.83 14.167-17v-1.77l-1.729.388c-.291.067-6.774 1.614-12.438 10.044z"/><path d="M15.972 5.337c-2.55 2.688-4.024 5.348-4.878 7.5 1.883 1.111 3.94 2.753 5.892 5.221 1.932-2.493 4.003-4.143 5.907-5.254-.857-2.146-2.332-4.793-4.866-7.467L17 4.25l-1.028 1.087z"/></svg><svg viewBox="0 0 32 32" id="thermometer" xmlns="http://www.w3.org/2000/svg"><path d="M20 22.667c0-2.092-.903-3.966-2.447-5.208l-.22-.44V6.667c0-2.206-1.794-4-4-4-2.205 0-4 1.794-4 4v10.352l-.22.44C7.57 18.7 6.667 20.575 6.667 22.667c0 .057.016.11.017.165.003.024.003.045.007.068.125 3.567 3.046 6.433 6.642 6.433 3.596 0 6.518-2.866 6.643-6.433.004-.023.004-.044.007-.068.001-.056.017-.108.017-.165zM13.333 5.333c.736 0 1.334.6 1.334 1.334v4H12v-4c0-.735.597-1.334 1.333-1.334zm6.667 0h9.333V8H20V5.333zm0 4h6.667V12H20V9.333zm0 4h4V16h-4v-2.667z"/></svg><svg viewBox="0 0 38 38" id="vk" xmlns="http://www.w3.org/2000/svg"><path d="M34.167 10.854c.221-.736 0-1.276-1.048-1.276h-3.473c-.883 0-1.287.467-1.509.98 0 0-1.765 4.305-4.267 7.096-.807.813-1.176 1.069-1.616 1.069-.22 0-.54-.256-.54-.993v-6.876c0-.884-.255-1.276-.991-1.276h-5.456c-.551 0-.884.408-.884.798 0 .836 1.25 1.029 1.38 3.385v5.11c0 1.12-.202 1.325-.645 1.325-1.177 0-4.04-4.321-5.738-9.268-.331-.96-.665-1.349-1.552-1.349h-3.47c-.993 0-1.191.467-1.191.98 0 .922 1.176 5.482 5.48 11.513 2.869 4.118 6.908 6.35 10.587 6.35 2.206 0 2.478-.495 2.478-1.35v-3.113c0-.991.21-1.19.91-1.19.512 0 1.396.26 3.456 2.243 2.352 2.353 2.742 3.409 4.064 3.409h3.47c.992 0 1.487-.496 1.202-1.474-.312-.974-1.436-2.391-2.927-4.068-.81-.956-2.022-1.985-2.391-2.5-.515-.663-.366-.956 0-1.545.002.001 4.23-5.955 4.67-7.98z"/></svg><svg viewBox="0 0 32 32" id="wallet" xmlns="http://www.w3.org/2000/svg"><path d="M26.667 8V5.333A2.67 2.67 0 0 0 24 2.666H6.667c-1.608 0-4 1.066-4 4V24c0 2.934 2.392 4 4 4h20a2.668 2.668 0 0 0 2.666-2.667V10.667A2.668 2.668 0 0 0 26.667 8zM5.333 6.667c0-1.074.734-1.318 1.334-1.334H24V8H6.683c-.616-.016-1.35-.26-1.35-1.333zm20 14.666h-2.666v-6.666h2.666v6.666z"/></svg><svg viewBox="0 0 34 34" id="water" xmlns="http://www.w3.org/2000/svg"><path d="M8.494 12.75c2.002 0 3.06-1.058 3.832-1.832.695-.694 1.036-1.001 1.83-1.001.795 0 1.137.307 1.831 1.001.772.774 1.83 1.832 3.834 1.832s3.064-1.058 3.839-1.832c.695-.694 1.037-1.001 1.834-1.001.798 0 1.14.307 1.835 1.001.773.774 1.833 1.832 3.838 1.832V9.917c-.798 0-1.14-.308-1.835-1.002-.773-.773-1.833-1.831-3.838-1.831-2.004 0-3.063 1.058-3.837 1.83-.696.695-1.036 1.003-1.836 1.003-.797 0-1.137-.308-1.83-1.002-.773-.773-1.831-1.831-3.834-1.831s-3.062 1.058-3.834 1.831C9.63 9.61 9.29 9.917 8.494 9.917c-.794 0-1.134-.308-1.829-1.002-.772-.773-1.83-1.831-3.832-1.831v2.833c.795 0 1.135.307 1.83 1.001.771.774 1.83 1.832 3.831 1.832zm0 7.084c2.002 0 3.06-1.059 3.832-1.832.695-.694 1.036-1.002 1.83-1.002.795 0 1.137.308 1.831 1.002.772.773 1.83 1.832 3.834 1.832s3.064-1.059 3.839-1.832c.695-.694 1.037-1.002 1.834-1.002.798 0 1.14.308 1.835 1.002.773.773 1.833 1.832 3.838 1.832V17c-.798 0-1.14-.307-1.835-1.001-.773-.774-1.833-1.832-3.838-1.832-2.004 0-3.063 1.058-3.837 1.83C20.96 16.693 20.62 17 19.82 17c-.797 0-1.137-.307-1.83-1.001-.773-.774-1.831-1.832-3.834-1.832s-3.062 1.058-3.834 1.832C9.63 16.693 9.29 17 8.494 17c-.794 0-1.134-.307-1.829-1-.772-.774-1.83-1.832-3.832-1.832V17c.795 0 1.135.308 1.83 1.002.771.773 1.83 1.832 3.831 1.832zm0 7.083c2.002 0 3.06-1.058 3.832-1.832.695-.694 1.036-1.002 1.83-1.002.795 0 1.137.308 1.831 1.002.772.774 1.83 1.832 3.834 1.832s3.064-1.058 3.839-1.832c.695-.694 1.037-1.002 1.834-1.002.798 0 1.14.308 1.835 1.002.773.774 1.833 1.832 3.838 1.832v-2.834c-.798 0-1.14-.307-1.835-1.001-.773-.774-1.833-1.832-3.838-1.832-2.004 0-3.063 1.058-3.837 1.83-.696.696-1.036 1.004-1.836 1.004-.797 0-1.137-.308-1.83-1.002-.773-.774-1.831-1.832-3.834-1.832s-3.062 1.058-3.834 1.832c-.694.694-1.034 1.002-1.829 1.002-.794 0-1.134-.308-1.829-1.002-.772-.774-1.83-1.832-3.832-1.832v2.834c.795 0 1.135.307 1.83 1.001.771.774 1.83 1.832 3.831 1.832z"/></svg></svg>